<?xml version="1.0" standalone="no"?>
<!DOCTYPE svg PUBLIC "-//W3C//DTD SVG 20010904//EN"
 "http://www.w3.org/TR/2001/REC-SVG-20010904/DTD/svg10.dtd">
<svg version="1.0" xmlns="http://www.w3.org/2000/svg"
 width="800.000000pt" height="717.000000pt" viewBox="0 0 800.000000 717.000000"
 preserveAspectRatio="xMidYMid meet">

<g transform="translate(0.000000,717.000000) scale(0.100000,-0.100000)"
fill="#000000" stroke="none">
<path d="M6515 6199 c-253 -63 -331 -99 -590 -272 -314 -209 -636 -504 -944
-862 -317 -369 -547 -719 -774 -1179 -54 -109 -60 -118 -74 -103 -15 15 -15
19 2 51 18 33 18 37 3 70 -9 19 -26 37 -38 41 -27 8 -26 11 54 144 l64 106 69
281 c39 154 82 307 97 339 28 62 29 84 1 41 -23 -34 -58 -142 -85 -257 -93
-398 -93 -398 -160 -509 -35 -58 -66 -109 -71 -114 -4 -4 -23 -2 -42 5 -30 11
-40 10 -81 -10 -25 -13 -50 -21 -55 -19 -5 1 -50 58 -99 126 -96 130 -100 138
-193 410 -83 241 -147 380 -170 367 -5 -4 2 -21 15 -38 30 -39 92 -191 171
-417 70 -203 69 -200 172 -338 l84 -113 -26 -31 c-28 -34 -28 -67 2 -100 13
-15 12 -21 -10 -58 l-24 -41 -8 28 c-3 15 -22 53 -41 84 -19 31 -34 59 -34 62
0 13 -139 261 -233 417 -526 869 -1105 1484 -1655 1755 -70 34 -149 70 -177
80 -27 9 -58 21 -68 26 -64 34 -226 48 -340 29 -71 -11 -132 -58 -208 -159
-66 -88 -87 -153 -71 -222 7 -28 10 -54 8 -58 -3 -4 -9 -52 -15 -106 -8 -78
-7 -111 5 -161 8 -34 13 -89 13 -121 -2 -62 16 -207 29 -245 5 -13 8 -81 6
-153 -1 -71 3 -163 9 -202 10 -76 2 -148 -28 -243 -15 -48 -17 -103 -13 -371
2 -129 7 -173 20 -200 9 -19 33 -70 54 -114 21 -45 58 -102 84 -130 26 -27 54
-64 63 -81 27 -52 125 -117 213 -140 32 -8 63 -19 68 -23 6 -5 22 -7 34 -5 16
3 22 0 19 -8 -2 -7 -11 -12 -20 -12 -9 1 -15 -2 -14 -6 1 -3 -13 -24 -31 -46
-111 -131 -232 -295 -226 -305 11 -19 5 -221 -9 -270 -39 -141 -50 -208 -39
-236 31 -77 73 -271 82 -378 10 -108 14 -124 40 -160 16 -22 49 -80 73 -130
24 -49 55 -109 70 -132 15 -24 27 -50 27 -58 0 -9 31 -48 68 -88 51 -54 75
-89 96 -142 15 -38 35 -85 43 -104 21 -49 27 -118 15 -180 -9 -52 -9 -56 24
-108 34 -53 35 -53 85 -53 68 0 95 -16 182 -112 l75 -82 66 -4 c79 -5 134 14
185 64 56 54 142 108 205 128 46 15 62 26 83 58 41 61 231 250 293 291 74 48
92 69 135 155 25 50 41 72 50 68 10 -3 12 0 8 12 -3 9 -3 14 1 10 11 -9 66 52
66 73 0 10 3 25 7 35 5 13 3 15 -7 9 -9 -6 -11 -4 -5 5 6 10 11 10 20 -3 11
-15 16 -14 49 12 20 16 36 32 34 34 -2 3 18 22 44 43 32 26 43 41 35 46 -8 5
-7 8 4 8 17 0 92 55 146 107 18 18 38 33 44 33 5 0 7 5 4 10 -3 6 0 10 7 10 7
0 29 16 48 36 28 28 32 36 20 44 -8 5 -11 12 -7 17 5 4 13 1 18 -7 8 -11 12
-12 16 -2 2 6 9 10 14 7 5 -4 6 0 3 8 -3 8 6 23 20 35 14 11 26 24 26 28 0 5
26 32 57 61 57 51 58 52 73 32 16 -20 16 -20 16 0 0 11 -3 18 -7 15 -4 -2 -9
3 -13 11 -10 26 11 26 28 -1 23 -34 75 -64 112 -64 29 0 100 39 116 64 5 7 8
7 8 1 0 -6 -6 -17 -12 -24 -11 -10 -10 -11 5 -6 10 5 17 2 17 -5 0 -9 4 -9 17
1 15 12 16 12 9 -5 -5 -15 0 -13 19 8 19 20 31 26 48 21 18 -6 20 -5 10 6 -20
21 -15 32 6 12 10 -10 35 -50 55 -90 26 -50 60 -93 114 -145 125 -120 230
-246 263 -317 17 -36 63 -108 102 -160 40 -51 88 -120 107 -152 24 -40 64 -82
130 -136 128 -106 231 -216 251 -266 12 -31 24 -44 45 -50 16 -5 49 -15 74
-22 25 -8 72 -19 105 -26 73 -15 80 -20 104 -75 24 -54 57 -71 148 -75 l72 -4
38 55 c21 30 58 69 81 87 39 29 51 33 110 34 144 1 157 13 157 143 0 87 2 96
32 144 17 28 39 78 48 110 13 45 29 73 67 113 52 56 78 103 78 139 0 29 23 70
67 123 21 25 60 73 88 108 l49 64 1 120 c0 104 3 125 23 162 12 23 22 50 22
60 0 10 11 52 25 93 30 92 30 105 4 183 -17 50 -22 90 -24 202 -2 160 -10 184
-75 235 -23 18 -40 40 -40 52 0 38 -105 156 -182 204 -23 15 -64 44 -91 66
-44 34 -46 38 -24 38 14 0 34 3 44 6 17 6 17 6 -1 -8 -16 -13 -15 -14 20 -10
31 4 35 6 19 13 -13 5 -2 7 35 7 69 1 139 15 211 41 69 26 73 29 150 121 35
41 66 77 69 80 15 13 69 88 82 115 38 74 52 134 59 255 4 69 12 163 18 210 16
114 14 188 -9 284 -16 64 -17 88 -9 125 10 45 21 146 38 376 5 61 14 126 20
145 6 19 11 55 11 81 0 25 7 67 16 93 10 29 14 63 11 88 -3 26 1 59 14 95 17
49 23 146 19 293 -1 14 2 50 6 81 7 61 5 66 -58 165 -47 73 -154 158 -226 179
-65 20 -182 17 -277 -6z m135 -79 c0 -5 -5 -10 -11 -10 -5 0 -7 5 -4 10 3 6 8
10 11 10 2 0 4 -4 4 -10z m119 -2 c16 2 32 -1 36 -8 10 -16 -2 -25 -17 -13 -7
5 -30 8 -50 7 -21 0 -38 2 -38 7 0 9 34 17 38 9 1 -4 15 -5 31 -2z m81 -8 c0
-5 -8 -10 -17 -10 -15 0 -16 2 -3 10 19 12 20 12 20 0z m-5331 -44 c74 -18 64
-36 -21 -37 -137 -1 -207 -8 -244 -24 -45 -18 -56 -13 -20 10 26 17 145 46
159 38 4 -2 17 -1 30 3 19 7 16 9 -23 20 l-45 13 60 -6 c33 -3 80 -11 104 -17z
m5321 -143 c63 -32 116 -65 118 -72 3 -8 -15 -1 -39 17 -24 18 -75 42 -112 53
-38 11 -66 23 -63 27 4 3 -4 12 -16 19 -13 7 -18 12 -12 13 6 0 62 -26 124
-57z m-5260 -13 c0 -5 -7 -10 -16 -10 -8 0 -12 5 -9 10 3 6 10 10 16 10 5 0 9
-4 9 -10z m188 -4 c54 -4 88 -11 98 -20 20 -20 2 -28 -33 -15 -41 16 -59 19
-148 25 -44 3 -84 10 -89 15 -6 5 11 7 40 4 27 -2 86 -7 132 -9z m-158 -36 c0
-5 -5 -10 -11 -10 -5 0 -7 5 -4 10 3 6 8 10 11 10 2 0 4 -4 4 -10z m40 0 c0
-5 -7 -10 -16 -10 -8 0 -12 5 -9 10 3 6 10 10 16 10 5 0 9 -4 9 -10z m4650 2
c0 -4 -9 -8 -19 -8 -11 0 -17 4 -15 8 3 4 12 8 20 8 8 0 14 -4 14 -8z m-4610
-6 c0 -3 -4 -8 -10 -11 -5 -3 -10 -1 -10 4 0 6 5 11 10 11 6 0 10 -2 10 -4z
m120 -6 c0 -5 -8 -10 -17 -10 -15 0 -16 2 -3 10 19 12 20 12 20 0z m110 -13
c8 -3 -5 -6 -30 -6 -25 0 -52 4 -60 10 -11 8 -7 9 17 4 19 -4 34 -2 38 5 5 8
10 8 14 3 3 -6 13 -13 21 -16z m-365 -24 c11 0 27 -2 35 -5 8 -3 12 -3 8 -1
-21 12 -3 18 45 17 74 -2 77 -3 75 -13 -2 -5 6 -16 16 -24 19 -14 19 -15 -2
-37 -11 -12 -25 -19 -31 -15 -6 3 -11 2 -11 -4 0 -10 -18 -10 -36 2 -7 4 -14
0 -18 -8 -8 -21 -46 -19 -46 2 0 16 -1 16 -16 1 -14 -14 -18 -14 -39 6 -25 23
-65 32 -65 14 0 -12 -48 -2 -68 14 -10 8 -9 13 5 23 21 15 46 8 39 -11 -3 -8
-1 -14 4 -14 6 0 10 11 10 25 0 14 5 25 11 25 5 0 7 -6 4 -12 -4 -7 0 -5 8 5
17 21 27 22 27 2 0 -8 -5 -15 -11 -15 -5 0 -7 -4 -4 -10 10 -16 32 12 28 35
-3 12 -1 16 4 9 4 -5 17 -10 28 -11z m5025 -29 c0 -2 -7 -4 -15 -4 -8 0 -15 4
-15 10 0 5 7 7 15 4 8 -4 15 -8 15 -10z m95 6 c3 -5 2 -10 -4 -10 -5 0 -13 5
-16 10 -3 6 -2 10 4 10 5 0 13 -4 16 -10z m-145 -30 c-9 -6 -19 -5 -25 1 -6 6
-5 13 5 19 9 6 19 5 25 -1 6 -6 5 -13 -5 -19z m-5380 10 c0 -4 -7 -11 -16 -14
-22 -8 -24 -8 -24 7 0 7 9 13 20 14 11 1 20 -2 20 -7z m5440 -10 c0 -5 -7 -7
-15 -4 -8 4 -15 8 -15 10 0 2 7 4 15 4 8 0 15 -4 15 -10z m50 -5 c9 5 11 4 6
-3 -4 -7 -17 -12 -29 -12 -18 0 -19 -2 -7 -10 8 -5 10 -10 4 -10 -19 0 -23 12
-11 31 7 12 14 14 18 7 4 -6 12 -7 19 -3z m-5205 -37 c5 -4 0 -6 -13 -5 -22 1
-27 8 -15 20 3 4 9 4 12 0 3 -4 10 -11 16 -15z m75 -12 c-7 -7 -15 -5 -22 3
-11 10 -10 11 5 5 14 -5 16 -2 11 12 -5 16 -4 16 5 4 6 -9 7 -18 1 -24z m5140
9 c0 -8 -2 -15 -4 -15 -2 0 -6 7 -10 15 -3 8 -1 15 4 15 6 0 10 -7 10 -15z
m-87 -19 c-6 -31 14 -43 33 -20 14 18 15 18 5 -2 -7 -15 -6 -28 5 -48 8 -16
14 -30 14 -31 0 -2 -20 -5 -45 -7 -35 -2 -45 0 -45 12 0 10 -3 11 -8 4 -11
-17 -62 -27 -62 -12 0 10 -2 10 -8 1 -10 -16 -108 -28 -116 -14 -11 17 -29 13
-22 -4 3 -8 1 -15 -4 -15 -6 0 -10 5 -10 11 0 6 -7 3 -16 -5 -17 -18 -69 -22
-59 -6 4 6 11 8 16 5 5 -4 9 -1 9 5 0 6 5 8 11 4 8 -4 9 1 4 17 -5 18 -4 20 4
9 5 -8 13 -11 17 -7 4 3 1 13 -5 21 -10 12 -9 15 11 14 48 0 70 -9 64 -23 -3
-8 -1 -15 4 -15 6 0 10 7 10 15 0 9 10 15 23 16 12 0 16 3 10 6 -7 2 -13 12
-13 21 0 15 2 15 10 2 6 -9 10 -11 10 -3 0 7 7 10 15 7 11 -4 13 -2 9 9 -4 12
3 14 40 10 40 -5 46 -3 46 13 0 16 2 17 10 4 14 -22 12 -30 -7 -31 -14 0 -14
-2 4 -9 12 -5 26 -17 32 -27 6 -10 11 -13 11 -6 0 6 -5 15 -11 18 -6 4 -8 13
-5 21 3 7 1 16 -4 19 -7 4 -6 13 0 26 14 25 18 24 13 -5z m-5107 -25 c-4 -6
-13 -11 -19 -11 -8 0 -7 3 2 9 8 5 10 14 6 22 -6 11 -5 11 5 2 7 -6 9 -16 6
-22z m5044 15 c-4 -4 -16 -4 -26 2 -16 9 -14 10 8 9 15 -1 23 -6 18 -11z
m-5001 -38 c1 -5 -4 -8 -10 -8 -5 0 -7 5 -4 10 3 6 2 10 -4 10 -6 0 -7 8 -4
17 6 15 7 15 14 -3 4 -10 8 -22 8 -26z m118 36 c-3 -3 -12 -4 -19 -1 -8 3 -5
6 6 6 11 1 17 -2 13 -5z m-27 -33 c0 -6 -4 -12 -8 -15 -5 -3 -9 1 -9 9 0 8 4
15 9 15 4 0 8 -4 8 -9z m-125 -11 c3 -5 1 -10 -4 -10 -6 0 -11 5 -11 10 0 6 2
10 4 10 3 0 8 -4 11 -10z m5165 -10 c0 -5 -5 -10 -11 -10 -5 0 -7 5 -4 10 3 6
8 10 11 10 2 0 4 -4 4 -10z m-440 -30 c0 -14 -6 -20 -22 -19 -17 1 -19 2 -5 6
20 5 22 19 5 26 -8 3 -6 6 5 6 11 1 17 -6 17 -19z m36 -7 c-3 -8 -6 -17 -6
-19 0 -3 -4 -2 -10 1 -17 11 -12 45 6 38 8 -3 13 -12 10 -20z m-4739 4 c10
-16 59 -38 67 -30 3 3 -2 12 -12 19 -9 8 -12 14 -5 14 6 0 15 -5 18 -10 4 -6
11 -8 16 -5 17 11 9 -10 -10 -27 -17 -15 -20 -15 -35 1 -14 13 -18 14 -25 2
-6 -9 -10 -10 -16 -2 -3 7 -15 9 -25 6 -10 -3 -21 -1 -25 4 -3 6 7 14 22 18
l28 7 -25 7 c-23 6 -23 7 -3 8 12 1 26 -5 30 -12z m118 -18 c-4 -5 4 -10 17
-10 l23 -2 -23 -4 c-18 -4 -21 -8 -12 -18 8 -9 8 -15 0 -20 -5 -3 -11 0 -12 7
-5 45 -4 67 4 62 4 -3 6 -10 3 -15z m-185 -14 c10 -12 10 -15 -2 -15 -8 0 -15
7 -15 15 0 8 1 15 2 15 2 0 8 -7 15 -15z m4745 -11 c34 -4 37 -7 15 -13 -23
-6 -50 6 -50 24 0 3 6 3 13 -2 6 -4 17 -8 22 -9z m305 -1 c0 -11 -49 -51 -54
-45 -4 3 -13 -3 -20 -14 -8 -10 -17 -16 -21 -13 -3 4 0 13 8 20 7 8 16 21 19
30 5 13 2 16 -15 13 -19 -4 -19 -3 2 6 14 6 31 8 38 6 7 -3 13 -1 13 4 0 5 7
7 15 4 8 -4 15 -9 15 -11z m120 4 c-16 -9 -29 -10 -37 -5 -16 13 -33 1 -33
-23 0 -10 -4 -19 -10 -19 -5 0 -10 6 -10 14 0 8 -6 17 -12 19 -25 10 9 22 69
25 54 2 56 2 33 -11z m-4840 -7 c0 -5 -2 -10 -4 -10 -3 0 -8 5 -11 10 -3 6 -1
10 4 10 6 0 11 -4 11 -10z m4613 -20 c3 -13 1 -18 -6 -13 -18 11 -67 14 -67 3
0 -6 -13 -10 -30 -10 -18 0 -29 -5 -27 -12 1 -6 -6 -13 -15 -15 -11 -3 -15 1
-13 14 2 10 4 21 4 26 1 4 13 7 29 7 15 -1 45 3 67 8 22 6 43 10 46 11 4 0 9
-8 12 -19z m237 10 c0 -5 -2 -10 -4 -10 -3 0 -8 5 -11 10 -3 6 -1 10 4 10 6 0
11 -4 11 -10z m-5180 -18 c0 18 23 20 48 4 7 -4 19 -2 27 4 12 10 15 9 15 -6
0 -16 2 -17 10 -4 5 8 10 10 10 4 0 -5 12 -9 28 -9 15 1 41 -4 57 -11 29 -13
28 -15 -5 -18 -8 0 -14 -9 -12 -18 2 -11 -5 -18 -20 -20 -19 -2 -23 -9 -21
-34 1 -27 -3 -33 -25 -37 -15 -3 -28 -1 -30 4 -4 11 -32 12 -32 1 0 -4 9 -14
20 -22 11 -8 20 -20 20 -28 0 -10 -3 -10 -15 2 -18 17 -41 12 -49 -11 -4 -11
-2 -13 9 -9 17 6 75 -3 75 -13 0 -8 -95 -5 -109 3 -6 4 -11 3 -11 -3 0 -6 -7
-8 -15 -5 -8 4 -15 11 -15 17 0 6 3 7 7 4 3 -4 12 -2 20 4 11 10 11 15 1 27
-11 13 -10 14 10 3 18 -9 23 -9 27 1 5 17 1 76 -5 76 -3 0 -18 0 -35 1 -24 1
-27 3 -15 12 12 8 10 9 -10 7 -20 -3 -25 2 -27 25 -1 15 2 27 8 27 5 0 9 6 9
14 0 21 23 25 37 7 11 -14 12 -14 13 1z m4680 14 c0 -3 -4 -8 -10 -11 -5 -3
-10 -1 -10 4 0 6 5 11 10 11 6 0 10 -2 10 -4z m468 -41 c14 -5 15 -4 5 6 -7 7
-13 18 -13 24 0 5 8 -2 18 -16 9 -14 23 -24 30 -22 6 3 12 -1 12 -7 0 -7 8
-10 20 -7 13 3 18 1 13 -6 -4 -6 0 -8 10 -4 10 4 22 -1 30 -13 13 -18 13 -18
25 0 16 25 40 15 37 -15 -2 -16 1 -22 9 -19 8 3 11 15 9 28 -3 13 -1 26 4 29
5 3 10 -14 10 -38 1 -35 -2 -42 -15 -38 -12 5 -14 1 -9 -16 4 -17 0 -24 -20
-32 -19 -7 -28 -6 -33 2 -6 8 -9 8 -15 -1 -4 -6 -13 -9 -21 -6 -9 3 -14 -1
-14 -12 0 -15 -2 -15 -11 -2 -9 12 -10 11 -6 -6 4 -17 1 -20 -15 -16 -11 3
-24 -3 -32 -13 -7 -10 -18 -15 -24 -11 -7 4 -12 1 -12 -6 0 -8 -3 -9 -8 -2 -5
7 -14 6 -31 -2 -24 -12 -23 -13 20 -17 24 -2 4 -4 -46 -5 -49 -1 -117 -6 -150
-12 -33 -5 -107 -12 -165 -15 -104 -5 -186 -16 -225 -30 -17 -6 -17 -4 4 14
28 25 25 26 -22 6 -20 -8 -49 -15 -64 -16 l-28 -1 25 -7 c33 -9 14 -20 -47
-26 -33 -3 -40 -2 -23 4 l25 8 -35 16 c-21 9 -28 16 -17 16 9 1 17 5 17 9 0
14 57 30 74 20 18 -10 56 6 56 24 0 6 3 8 7 5 3 -4 -2 -16 -12 -27 -17 -19
-17 -20 -1 -20 10 0 26 5 37 11 16 8 18 13 8 25 -8 10 -8 14 0 14 6 0 11 -4
11 -10 0 -5 5 -10 11 -10 6 0 9 9 6 20 -3 14 0 20 10 20 11 0 13 3 5 13 -6 7
-8 17 -4 22 7 10 15 16 74 53 16 9 28 24 29 32 1 11 3 10 6 -2 3 -14 14 -18
46 -17 31 0 37 3 22 8 -17 7 -16 8 9 15 15 4 36 4 46 1 11 -3 20 0 24 10 3 8
10 15 17 15 7 0 8 -7 4 -17 -17 -43 -15 -46 13 -14 17 18 28 39 26 45 -3 8 8
12 31 12 27 0 35 -4 35 -18 0 -10 5 -18 12 -18 6 0 8 -3 5 -6 -4 -4 -14 -1
-23 7 -14 11 -16 10 -12 -11 2 -19 8 -24 23 -22 35 6 49 5 69 -3 14 -6 17 -5
12 3 -4 7 -2 12 3 12 6 0 11 -5 11 -10 0 -6 8 -5 20 2 28 18 25 27 -7 25 -18
-1 -28 3 -28 13 -1 8 -7 13 -15 11 -24 -6 -46 -9 -32 -4 6 3 12 10 12 18 0 8
8 11 23 8 18 -4 19 -3 7 6 -10 7 -11 11 -2 11 6 0 12 7 12 15 0 8 5 15 11 15
7 0 9 -11 5 -27 -3 -16 -3 -22 0 -15 3 6 12 12 20 12 7 0 19 9 26 20 10 16 14
17 16 6 2 -8 11 -17 20 -21z m-384 19 c-7 -3 -10 -14 -7 -24 3 -11 1 -20 -5
-20 -5 0 -9 11 -9 25 0 17 5 25 16 24 9 0 11 -3 5 -5z m-4857 -26 c-3 -8 -6
-5 -6 6 -1 11 2 17 5 13 3 -3 4 -12 1 -19z m4498 -9 c-10 -15 -25 -10 -19 6 4
8 10 12 15 9 5 -3 7 -10 4 -15z m-4061 2 c-8 -8 -43 -8 -38 0 2 4 13 7 24 6
10 -1 17 -3 14 -6z m500 -6 c-4 -8 -11 -12 -16 -9 -6 4 -5 10 3 15 19 12 19
11 13 -6z m-43 -6 c11 -5 17 -14 14 -20 -4 -5 4 -13 17 -18 l23 -10 -22 0
c-13 -1 -23 3 -23 9 0 5 -8 7 -17 4 -15 -5 -15 -3 1 7 18 11 18 12 -5 25 -13
7 -20 13 -16 14 5 0 17 -5 28 -11z m4034 2 c3 -5 1 -12 -5 -16 -5 -3 -10 1
-10 9 0 18 6 21 15 7z m-4205 -11 c8 -5 11 -10 5 -10 -5 0 -17 5 -25 10 -8 5
-10 10 -5 10 6 0 17 -5 25 -10z m4170 0 c0 -5 -4 -10 -10 -10 -5 0 -10 5 -10
10 0 6 5 10 10 10 6 0 10 -4 10 -10z m-375 -9 c3 -5 0 -13 -6 -17 -8 -4 -9 -3
-5 4 12 20 -6 13 -33 -11 -15 -13 -39 -29 -56 -35 -28 -11 -28 -11 -11 3 19
15 19 15 -2 15 -12 0 -22 5 -22 11 0 6 6 9 13 6 8 -3 20 -1 28 3 8 5 19 4 26
-2 10 -8 13 -6 13 5 0 23 43 37 55 18z m-3482 -15 c4 -10 1 -13 -8 -9 -8 3
-12 9 -9 14 7 12 11 11 17 -5z m3774 -28 c-3 -8 -6 -5 -6 6 -1 11 2 17 5 13 3
-3 4 -12 1 -19z m-4712 3 c10 -16 -9 -19 -40 -5 l-30 13 32 1 c17 0 34 -4 38
-9z m4280 -12 c4 -5 -4 -9 -17 -9 -17 0 -19 -3 -9 -9 8 -5 9 -11 3 -15 -9 -5
-22 14 -22 33 0 10 39 11 45 0z m-4340 -9 c3 -5 -1 -10 -9 -10 -9 0 -16 5 -16
10 0 6 4 10 9 10 6 0 13 -4 16 -10z m27 -27 c-3 -16 -7 -22 -10 -15 -4 13 4
42 11 42 2 0 2 -12 -1 -27z m45 -5 c-3 -8 -6 -5 -6 6 -1 11 2 17 5 13 3 -3 4
-12 1 -19z m4177 6 c3 -8 2 -12 -4 -9 -6 3 -10 10 -10 16 0 14 7 11 14 -7z
m-3214 -10 c0 -8 -5 -12 -10 -9 -6 4 -8 11 -5 16 9 14 15 11 15 -7z m50 -17
c11 -5 9 -6 -4 -4 -11 1 -21 9 -23 17 -3 10 -2 11 4 4 4 -6 15 -14 23 -17z
m-85 -5 c-3 -3 -11 0 -18 7 -9 10 -8 11 6 5 10 -3 15 -9 12 -12z m122 -19
c-11 -10 31 -35 46 -27 6 4 9 4 5 -1 -4 -4 -2 -15 5 -24 9 -12 5 -11 -18 3
-63 40 -67 44 -53 49 19 8 22 8 15 0z m-1117 -13 c0 -5 -7 -7 -15 -4 -8 4 -15
8 -15 10 0 2 7 4 15 4 8 0 15 -4 15 -10z m853 -7 c-13 -2 -33 -2 -45 0 -13 2
-3 4 22 4 25 0 35 -2 23 -4z m114 -15 c-3 -8 -6 -5 -6 6 -1 11 2 17 5 13 3 -3
4 -12 1 -19z m103 12 c0 -5 -5 -10 -11 -10 -5 0 -7 5 -4 10 3 6 8 10 11 10 2
0 4 -4 4 -10z m-985 -31 c-4 -5 -1 -9 4 -9 6 0 11 5 11 10 0 15 47 12 53 -4 3
-7 1 -18 -5 -24 -8 -8 -5 -9 11 -5 26 7 27 -5 4 -24 -17 -13 -16 -14 5 -8 16
5 22 2 22 -9 0 -8 8 -17 18 -20 40 -12 -88 5 -141 19 -32 8 -60 15 -62 15 -3
0 -5 7 -5 16 0 11 6 14 18 10 11 -4 9 0 -5 10 -32 23 -29 31 13 32 20 1 39 4
42 6 8 9 23 -5 17 -15z m643 -9 c8 18 11 20 11 8 1 -26 21 -22 22 5 0 20 1 20
8 3 7 -18 8 -18 14 -3 3 9 12 17 19 17 9 0 8 -3 -2 -10 -11 -7 -4 -10 27 -10
24 0 43 5 46 13 3 6 6 2 6 -11 1 -17 -8 -27 -31 -37 -18 -8 -27 -14 -20 -15 7
0 22 5 33 10 16 9 19 7 19 -10 0 -11 7 -20 15 -20 9 0 12 6 9 15 -5 11 -2 13
9 9 9 -3 13 -12 10 -20 -4 -12 1 -14 23 -9 27 5 28 5 5 -5 -26 -11 -83 -7
-134 10 -18 6 -70 22 -117 36 -47 13 -73 23 -58 21 18 -3 33 3 45 16 18 19 18
19 24 -9 l6 -29 11 25z m129 24 c-3 -3 -12 -4 -19 -1 -8 3 -5 6 6 6 11 1 17
-2 13 -5z m73 -10 c0 -8 -5 -12 -10 -9 -6 4 -8 11 -5 16 9 14 15 11 15 -7z
m-1067 -1 c-7 -2 -19 -2 -25 0 -7 3 -2 5 12 5 14 0 19 -2 13 -5z m80 0 c-7 -2
-19 -2 -25 0 -7 3 -2 5 12 5 14 0 19 -2 13 -5z m1162 -8 c23 -2 85 -27 86 -35
0 -3 2 -13 4 -22 3 -14 -1 -15 -23 -7 -14 5 -28 6 -31 1 -10 -15 -62 -8 -75
11 -14 19 -36 23 -36 7 0 -5 -5 -10 -11 -10 -5 0 -8 4 -4 9 3 6 -3 14 -12 20
-10 5 -14 13 -9 18 5 4 11 2 13 -4 5 -15 69 -17 78 -3 4 6 -6 7 -25 4 -18 -4
-30 -2 -30 4 0 5 10 8 23 5 18 -4 20 -3 7 7 -12 10 -12 11 5 4 11 -4 29 -8 40
-9z m-1121 -10 c3 -9 0 -15 -8 -15 -7 0 -13 7 -13 15 0 8 4 15 8 15 4 0 9 -7
13 -15z m920 0 c3 -8 1 -15 -4 -15 -6 0 -10 7 -10 15 0 8 2 15 4 15 2 0 6 -7
10 -15z m46 -10 c-7 -8 -17 -15 -22 -15 -6 0 -5 7 2 15 7 8 17 15 22 15 6 0 5
-7 -2 -15z m3202 8 c-6 -2 -10 -9 -7 -14 4 -5 -1 -6 -10 -2 -13 5 -14 7 -3 14
7 5 18 8 23 8 6 0 4 -3 -3 -6z m-4252 -13 c0 -13 -11 -13 -30 0 -12 8 -11 10
8 10 12 0 22 -4 22 -10z m5333 -8 c-13 -2 -23 -9 -23 -16 0 -7 -7 -13 -15 -13
-8 0 -15 7 -15 14 0 8 -4 12 -9 9 -9 -6 9 -57 19 -51 3 1 14 -6 24 -16 16 -16
17 -19 4 -19 -9 0 -18 -9 -21 -19 -4 -17 1 -21 32 -24 28 -3 26 -4 -11 -4 -37
1 -48 5 -48 16 -1 10 -7 5 -16 -11 -17 -33 -45 -38 -37 -8 4 14 0 20 -11 20
-9 0 -16 -4 -16 -10 0 -5 5 -10 11 -10 5 0 8 -4 4 -9 -3 -5 0 -13 7 -17 9 -6
5 -10 -12 -15 -24 -7 -24 -7 -2 -8 13 -1 36 6 51 14 26 13 30 13 41 0 7 -8 17
-15 22 -15 6 0 5 7 -2 15 -11 13 -7 15 24 15 39 0 46 -20 11 -32 -14 -4 -10
-6 16 -7 19 -1 40 -6 46 -12 12 -12 6 -49 -8 -49 -13 0 -11 14 4 29 10 11 9
13 -3 9 -9 -3 -14 -16 -13 -33 2 -24 -1 -27 -22 -22 -14 2 -25 0 -25 -4 0 -5
7 -9 15 -9 8 0 15 -4 15 -9 0 -4 -19 -3 -42 3 -32 9 -42 8 -45 -1 -3 -7 -12
-13 -21 -13 -15 0 -15 -2 -2 -10 21 -14 30 -12 30 5 0 8 5 15 10 15 15 0 12
-16 -5 -30 -9 -8 -25 -10 -42 -5 -22 6 -225 13 -488 16 -38 1 -198 -19 -218
-27 -11 -4 -17 3 -21 23 -7 28 -46 77 -128 161 -23 23 -37 42 -32 42 6 0 16
-6 23 -12 12 -11 13 -10 7 6 -5 14 -2 17 10 12 8 -3 28 -6 42 -7 l27 -1 -25
-8 c-14 -4 -20 -8 -14 -9 6 -1 10 -13 8 -27 -1 -14 0 -23 3 -20 4 3 12 1 18
-4 9 -8 14 -6 19 5 3 9 2 13 -4 10 -6 -4 -7 2 -4 12 5 15 4 15 -5 3 -5 -8 -13
-11 -18 -7 -9 9 17 28 29 21 4 -3 12 -19 17 -37 9 -30 10 -30 16 -10 10 30 24
20 17 -12 -3 -18 0 -25 11 -25 28 0 45 -27 41 -67 -2 -29 -1 -33 6 -18 5 11 9
31 10 45 1 25 1 25 10 3 9 -23 30 -32 30 -13 0 18 19 10 25 -11 7 -20 8 -19
36 13 32 37 38 64 13 54 -14 -5 -15 -4 -5 8 7 8 10 20 7 25 -9 14 8 21 24 10
10 -6 11 -9 3 -9 -7 0 -13 -7 -13 -16 0 -11 6 -14 23 -9 17 5 19 4 7 -4 -12
-9 -11 -11 8 -11 23 0 30 14 12 25 -5 3 -9 14 -9 23 1 15 2 15 6 0 2 -10 13
-18 24 -18 10 0 19 -5 19 -11 0 -5 -3 -8 -8 -5 -4 2 -7 -13 -7 -34 0 -21 3
-34 7 -27 4 6 10 8 14 4 4 -3 1 -13 -6 -22 -11 -13 -4 -15 54 -15 42 0 65 4
61 10 -3 6 1 7 9 4 21 -8 21 19 1 36 -21 18 -19 38 6 42 20 3 20 4 -5 33 -14
16 -23 31 -21 34 3 2 13 -6 24 -17 23 -28 26 -28 58 4 22 22 23 25 7 20 -17
-5 -20 -1 -22 28 -2 21 4 40 14 51 16 15 9 16 -92 11 -60 -2 -103 -2 -96 1 21
9 13 25 -10 18 -19 -5 -20 -4 -7 4 9 6 71 12 137 13 66 2 118 6 116 10 -3 4
13 9 33 11 48 5 276 5 246 -1z m-5276 -8 c-3 -3 -12 -4 -19 -1 -8 3 -5 6 6 6
11 1 17 -2 13 -5z m33 -4 c0 -5 -2 -10 -4 -10 -3 0 -8 5 -11 10 -3 6 -1 10 4
10 6 0 11 -4 11 -10z m643 -4 c-4 -5 1 -7 11 -3 24 10 116 -14 116 -30 0 -7 8
-13 18 -13 15 0 15 2 2 11 -13 9 -13 10 1 6 10 -3 35 -11 57 -18 36 -10 40
-15 36 -38 -9 -55 -9 -54 -92 -47 -110 10 -152 17 -152 27 0 5 10 10 23 10 22
2 22 2 0 6 -28 5 -38 32 -15 41 26 11 25 32 -2 32 -13 0 -26 6 -29 13 -3 7 3
13 13 13 10 0 16 -5 13 -10z m-753 -6 c8 -5 11 -10 5 -10 -5 0 -17 5 -25 10
-8 5 -10 10 -5 10 6 0 17 -5 25 -10z m4300 -26 c0 -2 -7 -4 -15 -4 -8 0 -15 4
-15 10 0 5 7 7 15 4 8 -4 15 -8 15 -10z m130 -3 c52 -9 46 -27 -13 -39 -157
-33 -239 -40 -267 -22 -12 8 -12 10 -1 10 8 0 11 3 8 7 -4 3 5 12 19 20 30 15
46 17 24 3 -11 -7 -2 -10 33 -10 28 0 47 4 47 11 0 6 9 9 20 6 11 -3 23 1 28
7 10 17 34 26 52 19 8 -3 31 -9 50 -12z m-4302 -4 c10 2 51 -3 92 -11 41 -9
86 -16 100 -16 14 0 32 -5 40 -10 11 -8 7 -9 -14 -4 -21 5 -27 4 -22 -5 4 -6
16 -11 27 -11 10 0 19 -5 19 -11 0 -6 -7 -8 -17 -4 -12 4 -14 3 -8 -3 6 -6 19
-12 30 -15 17 -4 16 -5 -5 -7 -23 -1 -23 -2 -5 -10 17 -7 17 -9 3 -9 -10 -1
-18 -6 -18 -11 0 -13 52 -1 63 14 5 8 10 6 17 -4 5 -8 10 -12 10 -7 0 4 13 1
30 -8 34 -18 40 -18 40 -5 0 6 -7 10 -16 10 -8 0 -12 5 -9 10 4 6 16 8 26 5
11 -4 26 -2 34 5 9 7 15 8 20 0 10 -16 26 -12 23 6 -2 10 3 18 10 20 7 1 8 0
3 -2 -11 -6 23 -44 38 -44 19 0 21 19 5 34 -17 18 -13 18 126 -5 30 -4 90 -11
132 -15 l78 -7 -18 -29 c-9 -16 -28 -40 -43 -54 l-26 -24 -69 17 c-60 16 -113
18 -404 17 -184 -1 -327 0 -317 3 20 5 22 19 5 27 -7 3 -2 3 12 0 14 -4 22 -3
18 1 -4 5 -3 14 3 22 9 10 7 13 -7 14 -15 0 -15 2 -4 6 8 4 21 13 28 22 10 12
15 13 18 3 7 -16 24 -5 24 16 0 10 -3 13 -8 7 -4 -5 -18 -10 -32 -10 -21 0
-26 5 -28 32 -2 23 1 33 15 37 10 2 5 4 -11 3 -17 -1 -30 3 -32 11 -1 7 0 8 2
3 3 -5 13 -7 22 -4z m625 6 c-7 -2 -19 -2 -25 0 -7 3 -2 5 12 5 14 0 19 -2 13
-5z m3982 -3 c-11 -5 -27 -9 -35 -9 -9 0 -8 4 5 9 11 5 27 9 35 9 9 0 8 -4 -5
-9z m-3628 -6 c-3 -3 -12 -4 -19 -1 -8 3 -5 6 6 6 11 1 17 -2 13 -5z m2943
-24 c0 -5 -5 -10 -11 -10 -5 0 -7 5 -4 10 3 6 8 10 11 10 2 0 4 -4 4 -10z
m-4025 -10 c-3 -5 -11 -10 -16 -10 -6 0 -7 5 -4 10 3 6 11 10 16 10 6 0 7 -4
4 -10z m1117 -2 c12 -2 14 -6 8 -12 -14 -14 -12 -27 2 -23 7 1 14 -8 16 -20 2
-13 11 -24 20 -24 15 -1 14 -2 -1 -6 -25 -7 -15 -29 11 -25 15 2 22 -2 22 -12
0 -9 3 -15 8 -13 15 4 64 -43 59 -57 -5 -12 -1 -13 24 -4 16 6 41 8 54 5 18
-3 25 0 25 12 1 13 4 12 18 -4 21 -26 49 -37 57 -25 4 6 12 10 18 9 9 0 9 -2
0 -6 -22 -8 -14 -22 15 -25 19 -2 27 -8 26 -21 -2 -14 1 -15 12 -6 11 9 14 8
14 -5 0 -9 -6 -19 -14 -22 -16 -6 -10 -34 6 -34 6 0 8 7 5 14 -4 10 -1 13 9 9
17 -6 18 -15 2 -31 -9 -9 -7 -12 12 -12 60 0 70 -4 64 -22 -4 -13 0 -18 13
-19 12 -1 10 -3 -7 -8 -14 -4 -31 -3 -37 2 -9 7 -13 5 -13 -6 0 -11 12 -17 43
-19 42 -4 42 -4 15 -16 -30 -13 -39 -25 -10 -15 14 6 15 4 5 -9 -11 -12 -8
-19 17 -38 17 -13 30 -29 30 -36 0 -7 25 -38 55 -68 30 -30 55 -61 55 -70 0
-9 7 -16 15 -16 8 0 19 -9 25 -20 6 -11 17 -20 26 -20 8 0 19 -11 24 -25 5
-14 14 -25 20 -25 14 0 1 53 -17 63 -7 4 -13 17 -13 27 0 11 -9 24 -20 30 -11
6 -20 17 -20 24 0 8 -13 26 -30 39 -16 14 -30 33 -30 41 0 9 -7 16 -16 16 -9
0 -12 5 -8 12 4 7 7 27 6 45 -2 29 0 33 22 31 15 -1 22 -7 19 -15 -3 -7 -9
-13 -14 -13 -4 0 -6 -7 -2 -15 5 -14 7 -14 23 0 19 18 35 8 19 -12 -9 -10 -8
-13 4 -13 9 0 21 -9 27 -20 6 -11 16 -20 23 -20 8 0 8 3 -1 9 -10 6 -6 11 17
19 33 12 40 7 35 -22 -1 -10 4 -26 13 -34 14 -15 15 -14 9 8 -7 24 -6 24 8 6
22 -27 20 -46 -4 -46 -11 0 -20 -7 -20 -16 0 -9 5 -12 12 -8 8 5 9 2 5 -9 -3
-10 -2 -17 3 -17 5 0 11 8 13 18 3 11 5 7 6 -10 0 -15 5 -30 11 -33 6 -3 7 1
4 9 -3 9 -1 16 5 16 6 0 11 -11 11 -25 0 -14 5 -25 10 -25 6 0 10 -7 10 -15 0
-8 10 -19 21 -26 17 -9 19 -13 8 -20 -11 -7 -11 -9 3 -9 11 0 15 -5 12 -14 -3
-8 11 -31 32 -53 20 -21 36 -40 34 -43 -1 -3 7 -10 19 -16 11 -6 18 -14 14
-17 -4 -4 1 -13 10 -20 18 -13 68 -102 122 -217 20 -41 54 -110 76 -153 22
-42 37 -82 33 -89 -5 -7 -3 -8 6 -3 10 6 12 4 7 -8 -3 -10 -2 -17 3 -17 6 0
10 -5 10 -11 0 -18 -40 1 -170 81 -69 43 -204 121 -300 175 -96 54 -209 119
-250 145 -41 26 -91 55 -110 65 -19 10 -65 45 -101 79 -133 124 -219 199 -270
237 -66 49 -96 86 -139 169 -31 59 -108 178 -166 255 l-22 30 44 58 c24 32 44
64 44 70 0 7 5 29 11 50 l10 39 52 -6 c29 -3 60 -7 69 -8z m2983 2 c3 -5 1
-10 -4 -10 -6 0 -11 5 -11 10 0 6 2 10 4 10 3 0 8 -4 11 -10z m435 6 c0 -2 -7
-7 -16 -10 -8 -3 -12 -2 -9 4 6 10 25 14 25 6z m-536 -14 c3 -5 -8 -9 -25 -9
-19 0 -25 3 -17 9 17 10 35 10 42 0z m760 -9 c-7 -7 -17 -13 -22 -13 -5 0 -14
6 -20 13 -9 10 -4 13 22 13 27 0 31 -2 20 -13z m-710 -35 c4 6 14 8 23 5 11
-4 14 -3 9 5 -4 7 -15 12 -24 13 -9 0 -12 3 -5 5 6 3 25 -2 41 -10 34 -18 82
-21 172 -12 64 7 66 6 101 -27 49 -47 126 -143 134 -167 7 -23 -62 -133 -79
-123 -6 3 -8 3 -4 -1 7 -8 -8 -35 -97 -171 -29 -44 -60 -95 -69 -112 -9 -18
-31 -40 -49 -49 -17 -9 -48 -31 -67 -49 -19 -18 -56 -48 -81 -66 -26 -19 -86
-68 -134 -109 -54 -46 -126 -95 -189 -128 -55 -29 -117 -63 -136 -76 -49 -33
-115 -69 -260 -143 -69 -35 -154 -79 -190 -98 -36 -19 -68 -35 -71 -35 -3 0
-4 12 -1 26 4 20 7 23 14 12 7 -10 8 -8 4 5 -3 10 -6 23 -6 28 0 6 -4 7 -10 4
-5 -3 -10 1 -10 10 0 11 5 15 15 11 8 -3 15 -1 15 4 0 6 -8 10 -17 10 -13 0
-14 3 -6 11 6 6 9 18 5 27 -4 11 -1 14 11 9 14 -5 17 0 18 26 1 18 1 36 0 41
-1 5 5 6 13 3 20 -8 37 16 39 56 2 31 4 34 25 26 23 -9 29 0 12 17 -7 7 -3 17
10 32 11 11 20 28 20 36 0 8 10 27 23 43 13 15 32 43 43 62 10 19 29 45 42 59
12 14 22 34 22 45 0 11 3 17 7 14 9 -10 35 44 28 61 -4 11 -2 12 7 4 10 -8 19
-4 35 14 l21 24 -21 -4 c-12 -1 -16 -1 -9 1 6 3 12 8 12 13 0 4 9 10 19 13 10
2 24 14 30 26 10 18 9 21 -6 21 -13 0 -7 11 24 39 23 22 39 42 35 45 -3 3 0 6
7 6 8 0 10 7 6 22 -6 17 -4 20 9 15 10 -4 16 -1 16 8 0 8 5 15 10 15 6 0 10 5
10 11 0 5 -6 7 -12 3 -10 -5 -10 -3 0 7 11 12 14 12 23 -1 8 -12 9 -10 4 7 -5
18 -3 22 9 17 11 -4 15 -2 11 8 -4 9 4 19 20 26 16 8 23 17 19 25 -5 9 -4 9 6
0 11 -10 10 -16 -5 -33 -10 -11 -13 -20 -7 -20 7 0 12 5 12 11 0 7 9 9 21 6
17 -4 19 -3 10 6 -13 13 -15 47 -3 47 4 0 13 -5 20 -12 9 -9 12 -9 12 1 0 7 6
11 14 8 8 -3 17 -1 19 6 2 7 4 -1 3 -18 0 -16 -5 -33 -10 -37 -5 -3 -2 -14 7
-23 16 -15 17 -15 17 6 0 18 3 19 15 9 12 -10 17 -6 32 24 10 22 24 36 35 36
15 0 17 5 12 25 -4 15 -2 25 5 25 6 0 11 11 11 25 0 14 5 25 10 25 6 0 10 8
11 18 0 15 2 14 10 -3 9 -19 9 -18 5 3 -3 14 1 22 10 22 8 0 14 5 14 10 0 15
-16 12 -30 -5 -7 -8 -17 -15 -22 -15 -5 0 -20 -12 -33 -27 -16 -19 -24 -23
-25 -13 0 8 -7 27 -14 42 -8 15 -11 30 -6 33 4 3 11 -7 14 -20 8 -31 28 -23
24 8 -3 19 2 22 29 22 22 0 33 5 37 17 2 10 1 16 -4 13 -4 -3 -13 2 -20 10
-11 13 -10 14 5 9 15 -6 17 -3 13 14 -5 17 -2 22 13 22 10 0 19 -4 19 -10 0
-5 -5 -10 -11 -10 -5 0 -7 -4 -4 -10 11 -17 25 -11 25 12 0 12 -7 29 -16 39
-14 16 -14 18 6 29 18 9 24 9 30 0 6 -9 11 -8 21 3 12 14 15 12 25 -10 7 -15
14 -21 18 -15z m409 35 c-7 -2 -19 -2 -25 0 -7 3 -2 5 12 5 14 0 19 -2 13 -5z
m-4070 -10 c-7 -2 -19 -2 -25 0 -7 3 -2 5 12 5 14 0 19 -2 13 -5z m315 0 c-10
-2 -26 -2 -35 0 -10 3 -2 5 17 5 19 0 27 -2 18 -5z m3222 -8 c-7 -8 -9 -15 -4
-15 4 0 -1 -6 -12 -14 -28 -21 -31 -10 -4 19 25 27 40 34 20 10z m575 -3 c-3
-3 -11 0 -18 7 -9 10 -8 11 6 5 10 -3 15 -9 12 -12z m223 -4 c17 -17 15 -28
-5 -28 -15 0 -16 2 -3 10 13 8 13 10 -2 10 -9 0 -20 5 -23 10 -9 14 19 12 33
-2z m42 -18 c0 -5 -4 -10 -10 -10 -5 0 -10 5 -10 10 0 6 5 10 10 10 6 0 10 -4
10 -10z m658 -17 c-10 -2 -26 -2 -35 0 -10 3 -2 5 17 5 19 0 27 -2 18 -5z
m-591 -9 c-3 -3 -12 -4 -19 -1 -8 3 -5 6 6 6 11 1 17 -2 13 -5z m-262 -33 c-8
-14 -25 -14 -25 0 0 5 5 7 10 4 6 -3 10 -1 10 6 0 7 3 10 6 6 3 -3 3 -10 -1
-16z m-698 -17 c-3 -3 -12 -4 -19 -1 -8 3 -5 6 6 6 11 1 17 -2 13 -5z m-3367
-43 c0 -5 -9 -13 -21 -16 -15 -5 -18 -10 -10 -18 13 -13 15 -31 3 -23 -5 3
-22 2 -38 -3 -26 -7 -34 -25 -24 -58 1 -5 3 -15 4 -23 0 -8 11 -16 24 -18 30
-5 28 -22 -3 -22 -18 0 -26 7 -31 25 -7 27 -19 33 -27 13 -2 -7 -4 -1 -3 14 0
14 5 26 10 25 5 -1 11 4 14 12 3 10 0 12 -11 8 -9 -3 -18 -1 -21 6 -2 7 -5 3
-5 -8 -1 -26 -19 -45 -43 -45 -32 0 -22 -37 12 -43 21 -5 28 -11 24 -22 -7
-17 -24 -20 -24 -4 0 7 -11 8 -30 4 -18 -4 -30 -3 -30 4 0 6 7 8 15 5 17 -7
18 -3 9 20 -6 14 -8 14 -24 -4 -9 -11 -21 -16 -25 -12 -5 4 -6 0 -2 -9 3 -9 0
-23 -6 -30 -10 -11 -9 -11 4 -1 9 6 19 9 22 5 12 -11 7 -23 -9 -23 -11 0 -14
-6 -9 -22 4 -13 11 -27 16 -32 13 -15 11 -26 -5 -26 -8 0 -14 -8 -13 -19 0
-11 6 -17 14 -14 7 3 13 -2 13 -10 0 -9 9 -19 20 -22 44 -14 14 -23 -96 -30
-88 -6 -118 -4 -127 5 -10 10 -7 12 11 7 20 -5 22 -2 16 16 -4 12 -7 27 -7 34
0 7 -5 11 -10 10 -5 -1 -11 15 -13 36 -3 25 -1 36 6 32 5 -3 10 -3 10 0 0 10
-28 35 -39 35 -6 0 -11 6 -11 14 0 9 7 12 19 9 10 -2 21 1 24 9 3 10 -3 13
-27 11 -17 -1 -42 0 -55 3 l-23 5 23 19 c12 11 25 20 29 20 4 0 8 12 8 26 0
26 16 44 36 40 6 -2 8 -1 3 1 -4 3 -5 9 -1 14 3 5 -4 9 -14 9 -11 0 -22 7 -26
15 -3 9 0 15 9 15 8 0 15 -5 15 -10 0 -6 13 -9 30 -8 16 1 29 7 29 13 -4 33 2
34 144 38 78 1 166 4 195 5 28 1 52 -2 52 -7z m-408 -23 c-6 -6 -15 -8 -19 -4
-4 4 -1 11 7 16 19 12 27 3 12 -12z m698 2 c0 -5 -4 -10 -10 -10 -5 0 -10 5
-10 10 0 6 5 10 10 10 6 0 10 -4 10 -10z m-834 -9 c-4 -5 0 -12 6 -14 8 -3 6
-6 -4 -6 -10 -1 -18 6 -18 14 0 8 5 15 11 15 5 0 8 -4 5 -9z m903 -7 c11 -11
-7 -10 -34 3 l-30 14 30 -6 c16 -4 32 -9 34 -11z m-854 -25 c-4 -5 4 -9 17
-10 l23 -1 -24 -7 c-27 -7 -95 -2 -86 7 3 3 16 7 28 9 12 2 24 8 25 13 2 6 8
8 13 4 5 -3 7 -10 4 -15z m889 -41 c-3 -5 -1 -8 5 -8 15 0 94 -117 131 -195
52 -109 53 -110 35 -95 -13 11 -14 10 -9 -4 4 -11 1 -16 -11 -16 -9 0 -14 3
-11 8 2 4 -14 8 -37 8 -23 0 -67 3 -97 7 -30 3 -65 6 -77 7 -14 0 -23 6 -23
15 0 8 -5 15 -11 15 -5 0 -7 5 -4 10 3 6 1 10 -4 10 -6 0 -11 -2 -11 -4 0 -2
-3 -12 -6 -20 -5 -12 -2 -15 10 -10 9 3 16 1 16 -6 0 -7 -18 -11 -52 -10 -29
1 -136 -1 -238 -4 -102 -3 -175 -2 -162 2 13 4 23 12 23 17 0 6 7 9 15 7 8 -2
14 2 14 7 0 6 6 9 13 7 6 -1 9 -1 5 1 -5 3 -8 11 -8 20 0 10 6 12 20 8 15 -5
18 -3 14 9 -7 19 16 22 34 4 7 -7 12 -9 12 -4 0 4 -7 14 -15 22 -12 12 -18 12
-34 2 -28 -17 -36 -5 -16 25 11 17 13 27 5 32 -6 3 -8 11 -4 16 3 6 12 5 22
-3 12 -10 14 -10 8 0 -4 7 -1 12 8 12 9 0 13 -6 10 -14 -8 -22 14 -29 39 -13
25 16 48 12 41 -7 -3 -8 1 -16 9 -19 9 -3 17 2 20 12 5 21 59 39 65 21 3 -7
10 -3 19 9 18 26 33 27 33 1 0 -13 5 -18 15 -14 9 4 15 0 15 -10 0 -9 -4 -16
-10 -16 -5 0 -10 -7 -10 -16 0 -12 -6 -15 -22 -11 -21 6 -48 -7 -48 -23 0 -9
47 -19 55 -12 11 11 55 7 55 -5 0 -7 7 -13 16 -13 12 0 15 6 11 23 -5 20 -5
20 7 5 14 -19 36 -24 36 -9 0 5 -6 12 -12 14 -10 4 -10 8 1 15 11 8 9 11 -9
17 -16 5 -19 10 -11 18 9 9 14 8 22 -3 7 -11 8 -7 3 15 -3 19 -2 25 3 17 7 -9
14 -4 28 21 15 28 16 40 7 65 -9 25 -8 32 6 37 9 3 18 1 20 -4 2 -6 7 -11 12
-11 9 0 7 26 -3 36 -4 4 -7 12 -7 18 0 5 6 1 14 -9 8 -11 12 -23 10 -27z m-79
12 c-3 -5 -14 -10 -23 -10 -15 0 -15 2 -2 10 20 13 33 13 25 0z m4420 -1 c49
-10 62 -15 50 -22 -13 -7 -15 -18 -11 -46 3 -20 3 -30 0 -23 -7 16 -24 6 -24
-15 0 -11 6 -14 23 -10 21 6 21 6 -3 -13 -20 -16 -22 -20 -7 -20 9 0 17 -7 17
-15 0 -9 10 -20 23 -25 12 -5 17 -9 11 -9 -6 -1 -29 6 -50 15 -21 9 -54 17
-74 18 -22 0 -34 6 -32 14 1 7 -8 12 -22 12 -13 0 -27 -6 -29 -12 -3 -8 -6 -6
-6 5 -1 9 -5 17 -10 17 -18 0 -22 -19 -9 -40 10 -15 10 -22 2 -28 -8 -5 -4
-13 12 -25 19 -14 23 -15 18 -2 -5 11 0 15 17 13 15 -2 23 2 21 10 -3 16 48
16 100 0 28 -8 35 -14 26 -21 -9 -6 -6 -7 10 -4 12 3 20 1 17 -4 -4 -5 8 -6
25 -3 16 4 30 2 30 -3 0 -5 -9 -9 -20 -9 -10 1 -19 -3 -19 -9 0 -5 7 -9 16 -7
8 2 12 -1 8 -7 -3 -6 -1 -11 5 -11 7 0 10 -7 7 -14 -4 -10 -1 -13 9 -9 7 3 14
1 14 -5 0 -6 9 -8 20 -5 23 6 27 -12 5 -21 -8 -3 -15 -12 -15 -20 0 -18 -27
-29 -33 -13 -3 8 -10 5 -21 -8 l-15 -20 -1 20 c0 17 -2 17 -10 5 -9 -13 -11
-13 -21 0 -8 11 -12 12 -16 2 -2 -6 -9 -9 -15 -6 -6 4 -14 0 -19 -7 -7 -11 -9
-11 -9 2 0 18 -24 32 -34 21 -12 -11 -40 -11 -49 1 -4 7 -5 -1 -1 -17 6 -25 5
-27 -12 -18 -23 12 -54 4 -33 -9 28 -17 -48 -22 -157 -11 -61 7 -146 12 -188
12 -61 0 -76 3 -76 15 0 8 -5 15 -11 15 -6 0 -9 -6 -6 -14 4 -10 -12 -15 -70
-20 -116 -9 -311 -7 -318 4 -3 5 0 20 6 32 27 49 162 249 166 244 3 -2 -2 -15
-11 -28 -15 -23 -14 -24 19 -42 34 -19 64 -14 35 4 -13 8 -12 10 2 10 9 0 18
-5 20 -12 3 -7 10 -8 17 -4 11 7 11 10 0 17 -11 7 -10 9 4 9 9 0 17 7 17 15 0
8 -4 15 -10 15 -5 0 -10 4 -10 9 0 4 12 6 26 3 18 -3 22 -8 15 -15 -17 -17
-13 -38 7 -36 9 1 25 1 36 0 15 -1 16 -4 6 -16 -10 -12 -9 -16 5 -21 9 -4 21
-2 28 5 6 6 16 11 22 11 5 0 -1 -10 -15 -21 l-25 -21 28 5 c34 5 36 -10 2 -19
-38 -9 -30 -20 13 -17 20 1 30 0 20 -3 -27 -8 -31 -36 -7 -58 l22 -21 -6 23
c-6 27 19 31 26 5 3 -11 5 -6 6 11 1 21 5 27 16 22 17 -6 36 29 28 51 -3 7 0
26 5 43 8 22 8 30 -1 30 -21 0 -38 -16 -32 -31 4 -10 -3 -14 -21 -16 -19 -1
-23 1 -13 8 8 4 14 14 14 21 0 7 15 17 33 23 27 8 33 14 29 31 -4 20 -3 21 25
5 26 -15 33 -39 9 -33 -6 1 -11 -2 -11 -8 0 -5 6 -10 14 -10 8 0 23 -3 33 -6
10 -3 14 -2 8 3 -10 7 -11 19 -6 48 1 6 6 3 11 -5 8 -13 10 -13 10 2 0 9 8 22
18 28 15 10 15 10 -4 5 -18 -5 -21 -2 -19 19 2 14 6 30 10 35 3 6 1 11 -4 11
-6 0 -11 -6 -11 -12 0 -7 -5 -5 -11 5 -11 19 -39 23 -39 6 0 -8 -4 -8 -14 0
-11 9 -15 8 -20 -5 -3 -9 -3 -21 1 -27 4 -7 0 -6 -10 1 -9 8 -21 11 -28 7 -6
-4 -15 -1 -20 6 -7 11 -9 10 -9 -3 0 -12 -8 -18 -25 -18 -16 0 -25 6 -25 15 0
16 -12 20 -23 8 -4 -3 -2 -12 3 -18 16 -19 -72 -46 -89 -28 -9 10 -6 13 16 13
21 0 33 8 46 29 9 15 14 31 10 35 -13 13 -31 5 -37 -16 l-6 -23 -15 25 c-21
36 -19 38 23 42 109 10 566 8 627 -3z m-5260 -9 c3 -5 -3 -10 -14 -10 -11 0
-23 5 -26 10 -3 6 3 10 14 10 11 0 23 -4 26 -10z m32 -32 c0 -13 -1 -17 -4
-10 -3 6 -17 12 -31 13 l-27 1 25 8 c14 4 27 8 30 9 3 1 6 -9 7 -21z m790 0
c-3 -8 -6 -5 -6 6 -1 11 2 17 5 13 3 -3 4 -12 1 -19z m3703 -23 l-23 -25 24
-9 c22 -9 22 -9 -8 -8 -18 1 -28 6 -25 12 30 45 38 55 46 55 5 0 -1 -11 -14
-25z m-4510 6 c0 -5 -7 -11 -14 -14 -10 -4 -13 -1 -9 9 6 15 23 19 23 5z
m5320 -11 c0 -5 -5 -10 -11 -10 -5 0 -7 5 -4 10 3 6 8 10 11 10 2 0 4 -4 4
-10z m40 -35 c11 -13 10 -14 -4 -9 -9 3 -16 10 -16 15 0 13 6 11 20 -6z
m-4525 -5 c-3 -5 -10 -10 -16 -10 -5 0 -9 5 -9 10 0 6 7 10 16 10 8 0 12 -4 9
-10z m4509 -35 c-4 -8 -11 -15 -18 -15 -6 0 -4 -5 4 -10 17 -11 10 -13 -14 -4
-14 5 -13 9 5 25 27 23 30 24 23 4z m41 6 c3 -5 1 -12 -5 -16 -5 -3 -10 1 -10
9 0 18 6 21 15 7z m-716 -23 c1 17 21 15 21 -2 0 -12 -20 -26 -36 -26 -2 0 -4
12 -3 28 0 24 1 25 9 7 5 -11 9 -14 9 -7z m-199 1 c0 -5 5 -7 12 -3 7 4 8 3 4
-4 -10 -17 -36 -15 -36 3 0 8 5 15 10 15 6 0 10 -5 10 -11z m680 -9 c0 -5 -9
-14 -20 -20 -18 -10 -19 -9 -8 14 10 23 28 27 28 6z m-3450 0 c0 -5 -7 -7 -15
-4 -8 4 -15 8 -15 10 0 2 7 4 15 4 8 0 15 -4 15 -10z m3745 -10 c3 -6 -1 -7
-9 -4 -18 7 -21 14 -7 14 6 0 13 -4 16 -10z m-5388 -14 c0 -8 -6 -12 -14 -9
-7 3 -10 9 -7 14 8 14 21 11 21 -5z m691 3 c-2 -6 -8 -10 -13 -10 -5 0 -11 4
-13 10 -2 6 4 11 13 11 9 0 15 -5 13 -11z m-428 -13 c-7 -7 -13 -7 -20 0 -6 6
-3 10 10 10 13 0 16 -4 10 -10z m5047 -2 c-3 -3 -12 -4 -19 -1 -8 3 -5 6 6 6
11 1 17 -2 13 -5z m60 -10 c-3 -3 -12 -4 -19 -1 -8 3 -5 6 6 6 11 1 17 -2 13
-5z m-3537 -8 c0 -2 -7 -6 -15 -10 -8 -3 -15 -1 -15 4 0 6 7 10 15 10 8 0 15
-2 15 -4z m-1556 -47 c-3 -5 -15 -8 -27 -8 -18 1 -19 2 -4 6 14 3 17 11 13 26
-5 21 -4 21 9 3 8 -10 12 -23 9 -27z m5083 25 c-3 -3 -12 -4 -19 -1 -8 3 -5 6
6 6 11 1 17 -2 13 -5z m-5347 -18 c0 -3 -4 -8 -10 -11 -5 -3 -10 -1 -10 4 0 6
5 11 10 11 6 0 10 -2 10 -4z m4687 -2 c-3 -3 -12 -4 -19 -1 -8 3 -5 6 6 6 11
1 17 -2 13 -5z m-4061 -76 c5 -8 2 -9 -10 -5 -26 10 -39 -2 -21 -19 22 -22 19
-27 -22 -47 -21 -10 -28 -16 -16 -13 21 4 22 1 18 -26 -4 -23 0 -36 14 -49 11
-11 21 -14 23 -8 2 6 25 11 51 11 36 1 47 5 43 15 -3 8 2 13 14 13 25 0 25 9
3 26 -25 19 -54 18 -47 -1 4 -10 0 -15 -15 -15 -12 0 -21 5 -21 10 0 6 5 10
11 10 5 0 7 5 4 10 -3 6 -15 10 -26 10 -12 0 -19 3 -17 8 3 4 10 22 17 40 8
18 20 32 29 32 15 -1 16 -2 1 -13 -23 -18 -12 -35 19 -29 27 5 27 5 8 -17 -11
-11 -14 -21 -8 -21 6 0 17 9 26 21 10 15 20 19 36 14 12 -4 27 -1 36 6 8 6 18
9 21 5 4 -4 1 -11 -6 -15 -13 -8 85 -30 154 -34 17 -1 36 -6 43 -10 6 -5 16
-6 21 -2 5 3 12 1 16 -5 4 -6 11 -7 17 -4 7 5 4 12 -7 21 -16 11 -17 13 -2 13
9 0 20 -7 24 -15 7 -12 11 -11 22 7 11 18 11 20 -3 15 -9 -4 -16 -2 -16 3 0 6
5 10 11 10 5 0 7 5 3 12 -18 29 188 -140 274 -224 108 -107 109 -105 -37 -107
-46 -1 -112 -5 -145 -10 -206 -31 -451 -50 -411 -32 20 9 20 10 -1 10 -12 1
-27 -6 -34 -14 -15 -18 -20 -18 -57 -4 -22 8 -24 12 -13 19 13 8 12 10 -2 10
-10 0 -18 -4 -18 -9 0 -12 -47 -20 -58 -9 -5 5 -20 10 -33 11 -13 0 -28 6 -32
12 -5 5 -5 0 -2 -12 5 -19 2 -23 -15 -23 -16 0 -20 5 -16 15 4 11 -1 15 -19
15 -13 0 -29 8 -34 18 -10 16 -10 16 -11 0 0 -10 -2 -18 -4 -18 -2 0 -12 -3
-22 -7 -14 -5 -16 -3 -11 12 6 15 5 16 -7 6 -8 -7 -25 -10 -38 -7 -13 3 -18 3
-11 0 7 -3 11 -11 9 -17 -1 -7 -1 -9 1 -4 3 4 12 7 21 7 14 0 14 -2 3 -9 -10
-6 -5 -11 19 -16 21 -5 35 -3 40 4 5 9 10 8 19 -3 10 -12 4 -15 -43 -21 -30
-4 -59 -4 -65 0 -6 3 -11 1 -11 -4 0 -7 -54 -11 -160 -11 -110 0 -160 3 -160
11 0 7 11 9 28 5 l27 -5 -26 12 c-14 7 -24 18 -21 25 3 10 9 9 24 -5 21 -18
21 -18 9 5 -12 22 -9 26 21 23 9 -1 19 2 22 8 3 5 -2 7 -11 5 -11 -3 -23 3
-31 16 -11 17 -10 20 7 20 11 0 21 -5 23 -12 3 -8 9 -8 23 0 18 10 18 11 -7
17 -18 5 -25 12 -21 22 5 13 7 13 15 -1 5 -9 14 -14 20 -10 7 4 5 10 -3 16
-10 7 -11 11 -2 14 7 3 9 12 6 20 -3 8 1 14 8 15 8 0 5 4 -6 8 -16 7 -21 3
-26 -18 -5 -18 -7 -11 -8 26 -1 44 -4 51 -17 46 -13 -5 -15 -2 -9 17 5 15 4
20 -4 16 -8 -5 -8 0 -2 16 8 21 -1 68 -13 68 -2 0 -11 -6 -19 -14 -8 -9 -24
-12 -36 -9 -21 5 -21 6 5 20 15 7 35 13 43 12 31 -3 42 1 35 12 -4 7 -9 8 -13
1 -4 -6 -11 -4 -19 4 -8 8 -9 14 -2 15 5 1 14 2 19 3 5 0 13 5 18 10 4 5 -7 5
-27 1 -19 -4 -38 -13 -42 -19 -6 -8 -11 -7 -18 4 -12 19 43 29 196 32 62 2
110 6 107 11 -2 4 77 7 176 7 126 0 182 -3 187 -12z m177 -5 c-13 -2 -33 -2
-45 0 -13 2 -3 4 22 4 25 0 35 -2 23 -4z m4564 1 c-3 -3 -12 -4 -19 -1 -8 3
-5 6 6 6 11 1 17 -2 13 -5z m-4397 -14 c-20 -13 -53 -13 -45 0 3 6 18 10 33
10 21 0 24 -2 12 -10z m2435 0 c-3 -5 -13 -10 -21 -10 -8 0 -12 5 -9 10 3 6
13 10 21 10 8 0 12 -4 9 -10z m-3482 -7 c-13 -2 -33 -2 -45 0 -13 2 -3 4 22 4
25 0 35 -2 23 -4z m5467 -3 c0 -5 -4 -10 -10 -10 -5 0 -10 5 -10 10 0 6 5 10
10 10 6 0 10 -4 10 -10z m97 -6 c-3 -3 -12 -4 -19 -1 -8 3 -5 6 6 6 11 1 17
-2 13 -5z m-5550 -10 c-3 -3 -12 -4 -19 -1 -8 3 -5 6 6 6 11 1 17 -2 13 -5z
m5190 0 c-3 -3 -12 -4 -19 -1 -8 3 -5 6 6 6 11 1 17 -2 13 -5z m-5166 -23 c-8
-5 -20 -7 -28 -4 -21 8 -15 13 15 13 20 0 23 -3 13 -9z m5004 -30 l70 -8 -85
-3 c-75 -3 -80 -4 -40 -10 28 -4 36 -8 20 -9 -44 -4 -60 -14 -50 -31 8 -12 11
-13 19 -1 10 15 75 6 65 -10 -3 -6 -11 -5 -20 2 -8 6 -17 9 -21 5 -3 -3 -1 -6
5 -6 16 0 15 -27 0 -33 -10 -3 -10 -8 1 -21 10 -12 22 -15 43 -11 34 8 59 -9
51 -33 -4 -13 -3 -14 5 -3 6 8 15 10 23 6 9 -6 11 -4 6 8 -4 11 -2 14 8 11 7
-3 13 -17 12 -32 -1 -18 3 -27 13 -27 8 0 21 -4 28 -9 16 -10 42 -1 42 14 0 7
-8 9 -20 5 -23 -7 -27 7 -6 24 10 8 16 9 21 1 3 -5 13 -10 22 -10 12 0 11 5
-7 20 -22 19 -23 20 -2 20 11 0 26 2 34 3 7 2 10 2 6 0 -5 -3 -8 -9 -8 -15 0
-6 11 -3 25 6 28 18 39 21 30 6 -4 -6 5 -10 19 -10 17 0 26 -6 26 -16 0 -9 -5
-12 -12 -8 -10 6 -47 9 -75 5 -3 -1 5 -10 18 -22 22 -19 22 -21 6 -30 -24 -14
-21 -28 5 -21 14 3 19 1 14 -6 -4 -6 5 -12 21 -15 16 -3 -16 -2 -69 0 -63 4
-98 2 -98 -4 0 -6 45 -14 105 -18 58 -4 107 -10 110 -15 2 -4 -10 -6 -28 -4
-19 2 -27 1 -19 -4 7 -5 10 -17 7 -28 -6 -18 -6 -18 8 -1 11 14 17 15 23 6 4
-7 3 -14 -3 -16 -6 -2 -9 -12 -7 -21 8 -31 -13 -45 -70 -50 -43 -3 -56 -1 -56
9 0 11 -2 11 -10 -1 -9 -13 -11 -13 -20 0 -8 13 -10 13 -10 -1 0 -23 -51 -32
-66 -12 -10 14 -12 14 -17 -1 -11 -27 0 -36 46 -38 40 -1 41 -1 7 -5 -19 -3
-84 2 -145 11 -60 8 -168 18 -240 21 -122 6 -293 26 -515 59 -96 15 -401 74
-406 79 -7 7 73 77 251 218 105 84 120 89 251 89 100 0 113 -2 107 -16 -5 -14
-3 -15 14 -6 10 6 25 7 32 3 16 -10 7 -16 -36 -26 -34 -7 -47 -28 -15 -24 36
3 63 -1 58 -10 -3 -5 1 -12 10 -15 21 -8 33 2 16 13 -10 6 -9 11 4 22 16 12
17 12 11 -4 -5 -15 -3 -17 12 -12 12 3 21 0 25 -10 9 -24 31 -17 32 10 1 14
-2 25 -7 25 -5 0 -9 4 -9 8 0 4 19 8 43 8 23 1 34 -1 25 -3 -10 -3 -18 -9 -18
-15 0 -6 10 -8 23 -4 12 3 28 6 35 6 22 0 12 17 -22 35 -24 13 -38 16 -48 9
-13 -10 -27 -11 -78 -4 -16 2 -8 6 25 11 55 8 309 2 420 -10z m-428 -27 c-3
-3 -12 -4 -19 -1 -8 3 -5 6 6 6 11 1 17 -2 13 -5z m-3877 -14 c0 -5 -8 -10
-17 -10 -15 0 -16 2 -3 10 19 12 20 12 20 0z m1397 -106 c-3 -3 -12 -4 -19 -1
-8 3 -5 6 6 6 11 1 17 -2 13 -5z m-2297 -39 c0 -8 -2 -15 -4 -15 -2 0 -6 7
-10 15 -3 8 -1 15 4 15 6 0 10 -7 10 -15z m27 -4 c0 -11 -5 -18 -9 -15 -4 3
-5 11 -1 19 7 21 12 19 10 -4z m5502 -8 c10 -17 10 -17 11 0 0 24 21 22 27 -3
3 -11 13 -20 22 -21 11 0 12 -2 3 -6 -7 -3 -19 0 -26 6 -10 8 -15 8 -18 1 -4
-12 -48 16 -48 31 0 15 18 10 29 -8z m-3734 -130 c33 -20 105 -60 160 -88 55
-29 149 -83 209 -119 60 -36 111 -66 113 -66 5 0 240 -153 268 -175 l20 -15
-20 1 c-36 2 -46 -1 -39 -12 5 -9 -1 -10 -22 -5 -33 8 -855 26 -866 20 -4 -3
-16 0 -27 5 -11 6 -21 7 -23 2 -4 -13 -258 -22 -389 -14 -103 6 -107 7 -123
34 -10 17 -13 30 -6 34 5 3 10 1 10 -5 0 -6 5 -8 10 -5 6 4 9 1 8 -6 -5 -20
19 -21 25 0 6 22 -10 41 -34 41 -10 0 -20 6 -22 13 -4 8 -6 7 -6 -3 -1 -20
-51 -20 -51 -1 0 11 -4 10 -19 -3 -17 -15 -19 -15 -25 -1 -6 16 10 54 29 67 6
5 3 8 -6 8 -9 0 -19 7 -23 15 -3 8 -10 15 -16 15 -13 0 -13 -27 -1 -32 5 -1
-1 -16 -15 -31 -19 -22 -24 -24 -24 -11 0 15 -3 15 -20 -4 -12 -12 -32 -22
-46 -22 -13 0 -27 -7 -30 -15 -4 -8 -13 -15 -21 -15 -8 0 -12 4 -9 9 8 12 -25
24 -36 13 -6 -6 7 -16 31 -26 23 -9 41 -21 41 -26 0 -7 -7 -7 -21 1 -17 8 -23
8 -29 -1 -6 -9 -10 -7 -14 8 -11 34 -36 36 -43 2 -6 -31 -17 -38 -29 -18 -4 6
-2 14 4 16 17 5 15 42 -2 42 -8 0 -22 -9 -30 -21 -8 -12 -19 -18 -25 -14 -6 3
-11 -2 -11 -12 0 -14 -2 -15 -9 -4 -6 9 -11 10 -15 2 -4 -6 3 -15 16 -20 l23
-10 -23 0 c-12 -1 -25 6 -28 14 -6 14 -8 13 -20 -2 -13 -17 -13 -17 -14 2 0
11 -5 27 -11 35 -8 12 -9 9 -4 -10 l6 -25 -16 25 c-9 14 -14 17 -11 8 3 -10 1
-20 -3 -23 -14 -8 -22 25 -11 45 15 27 12 34 -7 19 -15 -12 -16 -12 -10 3 3
10 2 20 -3 23 -6 4 -11 -1 -11 -9 -2 -20 -3 -26 -17 -56 -10 -22 -11 -23 -13
-5 -1 11 -2 26 -2 32 1 7 -3 10 -8 7 -5 -3 -9 2 -9 10 0 10 6 13 15 10 8 -4
15 -1 15 6 0 7 8 19 18 27 9 8 11 11 3 7 -9 -4 -20 0 -29 12 -13 18 -14 17 -8
-8 7 -32 2 -35 -22 -12 -18 19 -25 44 -11 44 5 0 9 5 9 10 0 6 -9 10 -20 10
-11 0 -20 5 -20 10 0 6 -11 10 -24 10 -26 0 -44 16 -25 22 6 2 0 12 -12 23
-18 16 -21 17 -16 4 4 -13 1 -16 -16 -11 -12 3 -16 7 -9 10 22 7 13 22 -14 22
-19 0 -25 -4 -20 -15 3 -8 0 -15 -7 -15 -7 0 -13 9 -13 20 0 15 7 20 29 20 15
0 26 4 22 10 -3 5 -12 7 -20 4 -10 -4 -12 0 -8 15 4 15 1 21 -12 21 -9 0 -19
9 -22 20 -3 11 -10 17 -17 13 -6 -3 -5 0 3 8 11 11 14 11 18 1 3 -8 9 -10 16
-4 7 6 104 12 217 16 113 3 221 8 240 11 l35 5 -35 -13 c-33 -13 -34 -14 -12
-21 12 -4 22 -14 22 -21 0 -9 6 -12 15 -9 8 4 15 1 15 -5 0 -18 28 -13 34 7 4
9 21 24 40 34 30 15 35 15 49 1 13 -13 19 -14 46 -2 17 8 31 20 31 26 0 8 12
13 33 12 21 -1 25 -3 12 -6 -29 -7 -39 -19 -20 -27 9 -3 13 -2 10 4 -3 6 0 10
9 10 8 0 17 -6 19 -12 4 -9 8 -10 14 -2 9 12 113 14 113 3 0 -4 10 -9 23 -11
12 -2 21 -9 20 -15 -1 -6 6 -9 17 -6 22 6 27 23 8 23 -29 0 20 28 57 33 22 3
32 3 22 1 -9 -3 -14 -10 -11 -16 4 -6 -1 -8 -14 -4 -12 4 -23 2 -28 -6 -4 -6
-2 -14 4 -16 7 -2 12 -10 12 -18 0 -18 15 -18 34 1 8 8 17 15 20 15 3 0 3 -7
0 -15 -4 -10 0 -15 10 -15 10 0 16 -7 14 -16 -4 -25 19 -28 38 -6 15 18 50 20
40 3 -2 -3 2 -12 10 -19 8 -7 14 -8 14 -2 0 5 10 10 23 10 40 0 66 11 60 26
-3 8 0 14 6 14 6 0 11 5 11 11 0 6 -8 9 -17 7 -10 -2 -17 -10 -16 -16 3 -14
-23 -16 -32 -3 -3 6 -28 7 -55 4 -34 -4 -50 -2 -50 6 0 6 5 11 11 11 5 0 7 5
4 10 -3 6 1 10 10 10 9 0 14 -4 10 -9 -10 -17 13 -21 57 -10 24 6 61 12 82 12
22 0 34 3 27 5 -9 3 -9 7 0 18 8 10 8 14 0 15 -32 4 -36 6 -34 16 2 7 -21 11
-67 10 -38 -1 -65 -4 -59 -8 6 -4 10 -11 8 -17 -3 -7 -11 -5 -24 4 -17 13 -18
16 -5 24 8 5 26 10 40 10 75 1 290 17 295 22 13 13 72 -5 130 -39z m-1648 21
c-3 -3 -12 -4 -19 -1 -8 3 -5 6 6 6 11 1 17 -2 13 -5z m-23 -21 c-12 -2 -24
-14 -28 -26 -3 -11 -8 -18 -11 -15 -13 13 16 48 38 47 22 -2 22 -2 1 -6z
m1168 0 c-6 -2 -10 -8 -8 -12 3 -4 -9 -5 -26 -3 -36 5 -18 22 22 21 14 0 19
-3 12 -6z m2891 -37 c-3 -5 -1 -6 6 -2 7 4 33 3 59 -2 79 -17 164 -31 223 -36
31 -3 87 -10 125 -15 38 -6 94 -13 124 -16 30 -3 96 -10 145 -15 50 -5 126
-10 170 -10 44 0 121 -7 170 -16 50 -9 99 -16 110 -16 69 1 305 -23 289 -29
-10 -4 -30 -5 -44 -3 -96 13 -104 13 -90 4 9 -6 10 -10 3 -10 -6 0 -15 5 -18
10 -10 16 -28 12 -22 -5 8 -19 -13 -31 -23 -14 -5 7 -7 16 -4 20 7 13 -28 20
-65 13 -30 -6 -32 -8 -16 -15 29 -11 47 -11 40 1 -3 6 -1 10 4 10 6 0 11 -6
11 -13 0 -7 9 -18 19 -24 16 -10 27 -9 57 3 22 9 51 13 73 10 20 -3 40 -5 45
-6 6 0 1 -7 -10 -15 -17 -13 -17 -14 -2 -15 9 0 20 5 24 11 5 8 10 6 16 -5 7
-12 14 -14 28 -6 15 8 20 6 25 -10 3 -11 13 -20 21 -20 8 0 14 -4 14 -9 0 -14
-18 -23 -24 -13 -3 5 -17 7 -31 4 -21 -4 -24 -1 -19 14 3 11 2 15 -3 8 -4 -6
-16 -13 -26 -17 -13 -5 -16 -13 -12 -26 3 -11 1 -22 -5 -26 -5 -3 -10 -1 -10
5 0 6 -4 8 -10 5 -6 -3 -7 1 -4 9 4 11 0 16 -11 16 -11 0 -15 -5 -11 -15 7
-18 -10 -20 -18 -2 -3 9 -8 7 -19 -5 -8 -10 -17 -14 -23 -8 -5 5 -42 11 -81
13 -59 4 -73 2 -73 -10 0 -12 -3 -12 -16 1 -18 18 -34 21 -34 6 0 -5 5 -10 10
-10 6 0 10 -4 10 -10 0 -5 -7 -10 -15 -10 -8 0 -15 -4 -15 -10 0 -5 4 -10 9
-10 11 0 22 -40 15 -52 -3 -5 -12 -4 -19 2 -10 9 -16 7 -24 -9 -8 -14 -8 -21
2 -24 7 -3 5 -6 -5 -6 -9 -1 -20 3 -23 9 -8 13 -110 1 -144 -16 -22 -12 -28
-12 -37 1 -8 11 -13 12 -24 2 -10 -10 -12 -9 -7 6 5 12 1 17 -14 17 -11 0 -18
-4 -14 -9 10 -17 -9 -20 -30 -5 -18 13 -18 14 0 14 10 0 16 3 12 6 -12 12 -47
-8 -47 -27 0 -12 -7 -19 -20 -19 -27 0 -25 -18 3 -23 18 -4 17 -5 -7 -6 -24
-1 -28 2 -24 22 3 17 -2 26 -18 34 -17 8 -21 7 -18 -2 3 -7 -2 -20 -11 -29 -9
-9 -15 -22 -12 -29 6 -16 -68 -16 -84 1 -18 17 -34 15 -19 -3 10 -12 10 -15
-4 -15 -9 0 -16 6 -17 13 0 10 -2 10 -6 0 -7 -18 -33 -16 -33 1 0 8 -9 18 -20
21 -11 3 -20 11 -20 16 0 5 -10 1 -22 -11 -12 -11 -26 -20 -30 -20 -5 0 -7 -4
-3 -9 3 -6 -11 -13 -32 -17 -39 -7 -333 1 -573 16 -379 24 -552 32 -633 28
-72 -2 -84 -1 -70 10 15 11 14 12 -8 12 -23 1 -23 1 -4 12 25 14 35 29 28 42
-4 5 1 7 10 3 10 -4 16 -2 14 6 -1 7 6 11 15 11 10 -1 16 2 13 6 -2 4 8 13 23
19 15 7 56 32 92 56 36 23 103 60 150 82 47 22 116 59 154 82 38 24 96 56 129
71 32 16 66 35 75 42 8 7 33 20 55 28 36 13 51 13 128 1 50 -9 85 -19 82 -25z
m-2966 28 c-3 -3 -12 -4 -19 -1 -8 3 -5 6 6 6 11 1 17 -2 13 -5z m243 -4 c0
-5 -2 -10 -4 -10 -2 0 -12 -3 -22 -7 -16 -6 -17 -5 -4 10 17 19 30 22 30 7z
m-427 -7 c-7 -2 -19 -2 -25 0 -7 3 -2 5 12 5 14 0 19 -2 13 -5z m72 -3 c16 -7
17 -9 3 -9 -9 -1 -24 -4 -32 -7 -12 -5 -15 -2 -10 10 7 18 10 18 39 6z m4699
-26 c3 -8 2 -12 -4 -9 -6 3 -10 10 -10 16 0 14 7 11 14 -7z m-4671 -1 c-7 -2
-19 -2 -25 0 -7 3 -2 5 12 5 14 0 19 -2 13 -5z m282 -3 c3 -5 -3 -10 -14 -10
-11 0 -23 5 -26 10 -3 6 3 10 14 10 11 0 23 -4 26 -10z m-725 -10 c0 -5 -2
-10 -4 -10 -3 0 -8 5 -11 10 -3 6 -1 10 4 10 6 0 11 -4 11 -10z m27 -22 c-3
-7 -5 -2 -5 12 0 14 2 19 5 13 2 -7 2 -19 0 -25z m578 21 c11 -17 0 -20 -21
-4 -17 13 -17 14 -2 15 9 0 20 -5 23 -11z m-1160 -9 c-3 -5 -14 -10 -23 -9
-14 0 -13 2 3 9 27 11 27 11 20 0z m2 -42 c-3 -8 -6 -5 -6 6 -1 11 2 17 5 13
3 -3 4 -12 1 -19z m5643 7 c0 -12 -19 -12 -23 0 -4 9 -1 12 9 8 7 -3 14 -7 14
-8z m-5596 -13 c3 -5 -1 -9 -9 -9 -8 0 -15 4 -15 9 0 4 4 8 9 8 6 0 12 -4 15
-8z m1223 2 c-3 -3 -12 -4 -19 -1 -8 3 -5 6 6 6 11 1 17 -2 13 -5z m4100 -30
c-3 -3 -12 -4 -19 -1 -8 3 -5 6 6 6 11 1 17 -2 13 -5z m92 -11 c3 -2 -12 -2
-31 -1 -20 2 -34 6 -31 11 4 6 52 -1 62 -10z m58 -29 c-3 -3 -12 -4 -19 -1 -8
3 -5 6 6 6 11 1 17 -2 13 -5z m47 -32 c-6 -4 -13 -14 -16 -22 -3 -10 -6 -8
-10 8 -5 18 -2 22 15 22 13 0 17 -3 11 -8z m86 -23 c0 -5 -4 -9 -10 -9 -5 0
-10 7 -10 16 0 8 5 12 10 9 6 -3 10 -10 10 -16z m-65 -29 c-11 -5 -15 -9 -10
-9 16 -1 10 -64 -6 -69 -12 -3 -12 -2 0 6 7 5 9 12 4 15 -7 4 -9 47 -4 65 1 1
9 2 19 1 14 0 14 -2 -3 -9z m40 -46 c0 -18 -3 -35 -7 -39 -4 -4 -4 2 -1 14 3
12 1 21 -5 21 -6 0 -10 8 -9 18 2 33 23 20 22 -14z m-140 14 c5 4 5 1 1 -6 -5
-9 -12 -9 -27 -2 -10 6 -19 13 -19 16 0 2 8 0 19 -5 10 -6 22 -7 26 -3z m24
-39 c-9 -18 -14 -20 -17 -9 -3 7 0 16 6 18 6 2 8 11 5 20 -5 13 -3 14 6 6 10
-10 10 -17 0 -35z m-5392 -4 c0 -8 -4 -12 -9 -9 -5 3 -6 10 -3 15 9 13 12 11
12 -6z m5433 -1 c0 -8 -5 -12 -10 -9 -6 4 -8 11 -5 16 9 14 15 11 15 -7z
m-4790 -38 c0 5 9 -2 19 -16 l19 -24 23 19 c21 18 22 19 16 2 -4 -10 -7 -23
-7 -28 0 -6 -19 -7 -44 -4 -27 3 -48 1 -51 -6 -5 -7 -13 -4 -26 7 -10 9 -16
21 -13 25 3 5 -4 9 -16 9 -12 0 -18 5 -15 10 4 6 10 8 15 5 5 -3 12 -1 15 5 4
6 16 8 27 4 15 -4 19 -3 14 7 -4 8 0 5 8 -5 9 -11 16 -16 16 -10z m-247 -36
c-7 -28 -13 -25 -13 6 0 14 4 23 9 20 5 -3 7 -15 4 -26z m67 -6 c0 -8 -5 -12
-10 -9 -6 4 -8 11 -5 16 9 14 15 11 15 -7z m300 -3 c0 -18 -18 -21 -30 -6 -10
13 -9 15 9 15 11 0 21 -4 21 -9z m4658 -8 c-10 -2 -18 -9 -18 -14 0 -5 -7 -9
-15 -9 -8 0 -15 -5 -15 -12 0 -6 -3 -9 -6 -6 -13 14 16 44 43 45 15 0 20 -1
11 -4z m-80 -35 c0 -30 -1 -31 -9 -10 -5 13 -7 28 -3 33 9 15 11 11 12 -23z
m-5013 12 c15 -7 9 -9 -25 -9 -33 -1 -41 2 -30 9 18 12 28 12 55 0z m1962 -16
c-3 -3 -12 -4 -19 -1 -8 3 -5 6 6 6 11 1 17 -2 13 -5z m2280 -26 c-3 -7 -5 -2
-5 12 0 14 2 19 5 13 2 -7 2 -19 0 -25z m-3200 9 c3 -4 11 -3 17 3 14 11 717
-3 736 -15 7 -5 32 -8 54 -7 l41 0 -34 -14 c-27 -12 -36 -13 -42 -2 -4 7 -11
10 -14 6 -3 -3 5 -18 19 -33 13 -14 24 -35 23 -46 -1 -20 -16 -27 -18 -9 -3
20 -5 25 -19 48 -8 12 -21 22 -29 22 -11 0 -11 -3 0 -17 12 -15 12 -16 -1 -8
-13 8 -13 7 0 -11 8 -10 21 -24 29 -30 12 -9 12 -12 0 -16 -8 -3 -27 -4 -44
-3 -16 1 -41 3 -54 3 -16 2 -21 7 -17 17 3 8 -1 21 -9 29 -19 19 -19 27 0 20
8 -4 15 -1 15 6 0 6 4 9 9 5 5 -3 13 0 17 6 5 9 -1 10 -24 6 -21 -4 -34 -1
-43 9 -10 13 -14 13 -30 -2 -10 -9 -17 -21 -16 -28 1 -6 -4 -10 -11 -8 -10 2
-11 -4 -7 -19 7 -22 6 -22 -61 -14 -60 7 -263 15 -497 19 -37 0 -67 5 -67 9 0
4 -9 3 -19 -3 -11 -5 -46 -12 -78 -15 -32 -3 -72 -7 -90 -9 -32 -5 -44 3 -56
37 -5 13 -3 17 5 14 7 -2 12 -12 12 -21 -1 -11 6 -16 27 -16 16 0 29 2 29 4 0
2 3 12 7 22 4 12 3 15 -5 10 -7 -4 -12 -2 -12 4 0 7 8 9 19 5 11 -3 22 -1 26
5 3 6 -3 10 -15 10 -12 0 -18 5 -15 10 3 6 1 10 -4 10 -6 0 -11 -6 -11 -14 0
-19 -31 -29 -44 -16 -8 8 -5 9 9 5 20 -7 20 -6 1 9 -12 10 -43 17 -80 18 -34
1 22 5 124 8 214 6 238 6 247 -3z m-464 -4 c-7 -2 -19 -2 -25 0 -7 3 -2 5 12
5 14 0 19 -2 13 -5z m4214 -25 c-3 -8 -6 -5 -6 6 -1 11 2 17 5 13 3 -3 4 -12
1 -19z m253 3 c0 -4 -7 -8 -15 -8 -16 0 -20 9 -9 20 8 8 24 -1 24 -12z m-1810
-16 c30 -2 129 -6 220 -10 91 -4 173 -12 184 -17 17 -9 16 -12 -15 -44 -35
-36 -65 -48 -34 -14 10 11 16 23 12 26 -9 9 -47 -16 -47 -31 0 -8 -4 -15 -10
-15 -15 0 -13 8 12 49 l21 36 -24 -22 c-27 -25 -45 -31 -33 -11 4 7 3 8 -4 4
-7 -4 -12 -16 -12 -27 0 -10 -4 -19 -10 -19 -5 0 -10 9 -10 20 0 11 -5 20 -11
20 -5 0 -7 -4 -4 -10 3 -5 -1 -10 -9 -10 -9 0 -16 -6 -16 -12 0 -9 -4 -8 -10
2 -9 13 -11 13 -20 0 -8 -12 -51 -14 -286 -12 -183 2 -282 6 -291 14 -9 8 -17
7 -30 -3 -9 -8 -14 -9 -10 -2 4 6 1 14 -5 16 -13 5 16 11 40 8 6 -1 12 3 12 8
0 5 -22 8 -50 6 -67 -4 -94 3 -79 21 19 23 2 16 -22 -8 -15 -16 -20 -18 -16
-6 4 10 -1 18 -14 21 -10 3 -19 1 -19 -4 0 -5 -4 -9 -10 -9 -5 0 -10 6 -10 14
0 18 45 27 61 12 9 -8 10 -8 4 3 -6 11 -1 13 23 9 18 -3 29 0 25 5 -5 9 306 4
497 -8z m-1575 -4 c3 -6 -2 -14 -11 -19 -13 -7 -14 -13 -6 -28 6 -10 12 -14
12 -7 0 7 7 10 15 6 23 -8 10 -16 -30 -19 -40 -4 -41 0 -19 44 16 32 28 40 39
23z m3305 -6 c-7 -8 -17 -15 -23 -15 -6 0 -2 7 9 15 25 19 30 19 14 0z m-4195
-15 c3 -5 1 -10 -4 -10 -6 0 -11 5 -11 10 0 6 2 10 4 10 3 0 8 -4 11 -10z
m2975 -19 c0 -14 -2 -14 -10 -1 -9 13 -11 13 -20 0 -24 -38 -56 -70 -70 -70
-9 0 -1 11 18 26 25 20 32 32 28 49 -5 19 -2 21 24 17 19 -3 30 -10 30 -21z
m40 9 c8 -5 11 -10 5 -10 -5 0 -17 5 -25 10 -8 5 -10 10 -5 10 6 0 17 -5 25
-10z m-2800 -56 c0 -14 4 -23 9 -20 5 4 12 0 14 -6 3 -7 6 1 6 18 l1 31 203 1
c111 1 227 -3 257 -8 30 -5 84 -12 120 -15 44 -3 69 -11 78 -22 6 -9 12 -12
12 -6 0 11 186 10 198 -1 15 -16 -23 -25 -143 -36 -71 -7 -150 -16 -175 -21
-128 -27 -248 -36 -368 -28 -68 5 -127 11 -130 13 -4 2 -59 7 -122 10 -135 8
-333 26 -339 32 -2 2 3 4 13 4 11 0 15 5 10 13 -5 9 -4 9 6 0 10 -9 18 -9 34
-1 29 16 89 19 98 5 5 -7 8 -3 8 11 0 12 5 22 10 22 6 0 10 -10 11 -22 0 -13
3 -17 6 -10 2 6 9 10 14 6 5 -3 9 2 9 10 0 9 5 16 10 16 6 0 10 -7 10 -15 0
-8 5 -15 11 -15 5 0 8 4 5 9 -6 9 64 41 87 40 6 0 -8 -8 -33 -18 l-45 -19 48
-3 c46 -4 47 -3 47 23 0 16 5 28 10 28 6 0 10 -12 10 -26z m1790 3 c0 -7 -4
-6 -10 3 -6 10 -10 11 -10 3 0 -7 -5 -13 -11 -13 -8 0 -8 5 1 15 13 16 30 11
30 -8z m165 -36 c8 0 12 -7 9 -15 -3 -8 -1 -17 5 -21 7 -4 11 4 11 21 0 26 1
26 18 11 10 -10 23 -17 28 -17 5 0 2 5 -6 10 -15 9 8 9 365 -5 168 -6 182 -8
390 -50 66 -14 133 -25 150 -25 41 0 76 -11 70 -21 -3 -4 3 -8 12 -8 27 0 57
-5 63 -11 11 -13 87 -29 110 -24 22 4 23 3 5 -5 -19 -9 -19 -10 -1 -10 11 -1
17 -4 14 -7 -5 -4 -116 24 -168 43 -29 10 -99 9 -401 -6 -326 -16 -307 -17
-504 30 -44 10 -116 24 -160 30 -44 6 -81 12 -83 14 -2 1 -4 12 -5 23 -1 16
-4 18 -14 10 -7 -5 -10 -14 -7 -19 3 -5 -1 -9 -9 -9 -10 0 -13 8 -10 28 3 19
2 23 -5 13 -6 -8 -12 -9 -16 -3 -3 6 -16 8 -29 5 -20 -5 -21 -4 -4 8 15 12 95
17 172 10z m-976 -47 c3 -3 0 -9 -7 -13 -10 -6 -10 -11 3 -21 11 -9 15 -9 15
0 0 6 6 10 13 7 6 -2 11 -11 9 -21 -2 -9 2 -16 9 -16 6 0 -17 -23 -51 -50 -73
-58 -119 -99 -280 -247 l-115 -106 -105 2 c-123 2 -186 -9 -295 -55 -127 -53
-430 -221 -521 -289 -16 -13 -48 -31 -70 -40 -109 -45 -235 -151 -321 -270
-88 -122 -134 -175 -146 -168 -5 3 -7 1 -4 -4 6 -9 -15 -43 -70 -110 l-18 -23
-2 28 c-1 15 4 33 10 41 10 12 9 12 -10 1 -12 -8 -19 -18 -17 -22 9 -14 -13
-8 -26 7 -7 8 -18 15 -24 15 -6 0 -4 -4 4 -10 12 -8 12 -10 -3 -16 -24 -9 -48
13 -28 25 7 5 9 11 4 14 -11 7 -29 -4 -34 -21 -3 -8 -8 -6 -16 8 -10 16 -10
18 1 14 7 -3 20 2 29 10 8 8 17 13 19 11 3 -3 4 11 3 30 0 22 4 35 12 35 7 0
17 9 23 20 6 11 8 20 4 20 -3 0 -1 7 6 15 6 8 8 20 4 26 -5 9 -2 10 10 6 10
-4 15 -3 11 3 -8 13 17 50 35 51 10 0 11 2 3 6 -7 2 -13 16 -13 29 0 13 -4 24
-10 24 -5 0 -10 -4 -10 -10 0 -5 -6 -10 -13 -10 -8 0 -14 11 -14 29 0 22 4 27
19 23 22 -5 24 11 3 28 -8 7 -12 17 -8 23 4 6 1 7 -8 3 -8 -4 -1 4 14 18 16
15 32 24 37 21 5 -3 12 0 16 6 5 8 3 9 -7 4 -9 -5 -11 -5 -4 2 16 17 294 197
360 234 33 18 81 50 107 70 26 21 74 49 105 64 175 80 410 204 437 230 33 33
72 103 81 147 4 20 22 35 82 68 47 25 96 44 123 47 98 10 498 56 540 62 44 7
90 5 99 -5z m-1096 -23 c104 -7 212 -16 239 -21 28 -6 71 -10 97 -11 l46 -1
-84 -39 c-46 -21 -102 -42 -125 -45 -112 -17 -386 -112 -456 -159 -19 -13 -64
-31 -100 -40 -36 -9 -78 -22 -95 -29 -102 -46 -324 -129 -347 -130 -14 0 -25
-3 -23 -6 5 -9 -94 -54 -102 -46 -3 3 -1 6 5 6 7 0 12 7 12 15 0 8 -3 14 -7
14 -30 -5 -44 2 -38 20 5 15 1 18 -20 13 -14 -2 -25 -9 -25 -14 0 -6 -8 -7
-17 -4 -9 4 -20 1 -25 -6 -5 -8 -8 -1 -8 20 0 30 2 32 23 22 21 -10 20 -9 -2
7 -13 9 -33 17 -45 18 -15 0 -22 7 -24 28 -2 19 -9 27 -23 27 -10 0 -19 -6
-19 -12 -1 -18 -29 -53 -36 -45 -4 4 -1 14 6 22 10 13 10 21 1 43 -7 15 -9 24
-5 19 4 -4 16 1 26 10 12 11 22 13 26 7 10 -14 34 -12 40 4 2 7 -2 10 -11 7
-7 -3 -20 1 -27 10 -7 9 -9 15 -4 14 19 -3 35 1 30 9 -6 10 15 37 35 44 11 4
16 1 15 -10 -1 -11 8 -17 28 -19 34 -2 40 -8 31 -24 -6 -8 -10 -7 -17 5 -9 16
-11 15 -27 -3 -21 -25 -33 -27 -25 -6 4 10 0 15 -11 15 -12 0 -15 -5 -11 -16
3 -9 6 -28 7 -42 l1 -27 7 25 c5 18 9 21 15 12 6 -10 11 -10 22 -1 8 6 14 8
14 3 0 -4 11 7 25 26 14 19 25 42 25 52 0 10 7 18 15 18 8 0 15 5 15 11 0 12
42 8 53 -6 5 -6 7 -4 4 5 -3 10 -16 15 -41 14 -22 -1 -36 3 -36 11 0 24 186
89 230 79 20 -5 22 -3 10 5 -13 9 -12 11 5 11 11 0 31 3 45 7 23 6 24 6 8 -10
-9 -10 -31 -20 -47 -23 -17 -4 -28 -10 -25 -15 3 -5 -7 -9 -21 -9 -17 0 -24 4
-19 12 5 7 3 8 -5 4 -9 -6 -8 -13 5 -27 20 -23 7 -25 -23 -4 -22 15 -48 11
-71 -11 -8 -8 -9 -15 -2 -19 5 -3 10 -1 10 4 0 8 7 7 19 -1 11 -7 18 -16 15
-20 -3 -4 3 -5 12 -1 16 6 16 7 0 18 -16 12 -22 35 -10 35 4 0 12 -8 19 -17
11 -15 18 -15 54 -4 23 6 39 16 36 21 -3 6 7 8 24 6 23 -2 31 2 40 21 7 15 17
23 25 20 8 -3 22 3 32 14 18 20 18 20 -10 9 -16 -6 -31 -8 -34 -5 -7 7 -5 7
52 28 39 14 51 15 58 5 5 -10 8 -8 8 5 0 11 8 17 25 17 17 0 25 -6 26 -17 1
-16 2 -16 6 0 4 14 11 17 30 12 22 -5 25 -3 20 14 -4 16 0 21 16 22 12 1 41 3
65 4 23 2 42 -1 42 -6 0 -5 -7 -9 -16 -9 -14 0 -14 -2 0 -15 20 -21 73 -10 55
11 -6 8 -8 14 -3 15 5 0 0 4 -11 9 -13 5 -1 7 35 5 30 -2 140 -8 243 -14z
m-558 -17 c-27 -13 -55 -22 -62 -19 -6 2 -13 0 -15 -5 -2 -5 -19 -12 -38 -15
-35 -5 -35 -5 10 17 43 20 123 46 145 46 6 0 -12 -10 -40 -24z m2311 -3 c-3
-5 3 -11 14 -14 12 -3 20 0 20 8 0 10 23 12 98 10 219 -5 513 -70 620 -135 33
-20 62 -71 62 -108 0 -26 40 -76 108 -135 55 -48 135 -97 390 -244 52 -29 132
-81 178 -115 47 -35 107 -76 134 -93 27 -16 73 -46 102 -66 29 -20 78 -52 108
-71 70 -45 152 -117 145 -128 -3 -5 0 -12 6 -16 8 -5 9 -3 4 6 -5 8 -3 11 6 8
8 -2 18 -14 24 -26 5 -12 15 -20 22 -18 7 3 15 1 18 -5 4 -5 3 -9 -2 -8 -4 1
-16 1 -27 0 -15 -1 -16 -4 -6 -16 8 -10 9 -15 1 -15 -6 0 -8 -11 -4 -30 4 -23
2 -30 -8 -28 -8 2 -15 -7 -17 -22 l-4 -25 24 23 c13 12 28 22 34 22 5 0 2 -5
-6 -10 -8 -5 -15 -24 -15 -44 0 -19 3 -32 7 -30 3 2 12 -9 19 -25 9 -20 16
-26 21 -18 5 7 7 1 6 -15 -2 -27 -27 -49 -29 -25 0 7 -4 3 -8 -7 -7 -18 -8
-18 -29 4 -12 13 -19 28 -15 33 3 6 2 7 -4 4 -5 -3 -25 10 -44 29 -43 44 -127
96 -201 124 -46 17 -84 45 -178 132 -141 130 -197 172 -265 197 -57 21 -218
54 -348 71 -84 10 -92 14 -160 64 -93 68 -178 118 -270 161 -55 26 -84 46
-112 82 -22 26 -122 130 -223 230 -103 102 -181 186 -177 192 3 6 0 11 -8 11
-8 0 -22 10 -33 21 l-19 22 30 -7 c28 -6 28 -5 8 6 -17 10 -19 17 -12 31 6 9
12 17 15 17 3 0 3 -4 0 -9z m1448 -86 c47 -14 94 -25 104 -26 12 0 10 -3 -7
-10 -14 -5 -28 -6 -35 0 -6 5 -22 12 -36 15 -24 6 -24 6 3 -9 15 -9 26 -19 23
-23 -2 -4 13 -8 33 -9 21 -1 49 -7 63 -12 22 -8 25 -14 21 -47 -2 -21 -9 -41
-15 -45 -7 -5 -7 -9 1 -13 6 -4 11 -2 11 3 0 20 20 11 29 -13 5 -13 19 -26 31
-29 19 -5 20 -8 10 -27 -11 -20 -10 -21 9 -15 17 5 20 3 15 -12 -3 -10 2 -6
11 10 16 28 41 38 31 12 -7 -18 5 -20 23 -2 11 10 12 9 6 -2 -6 -11 -4 -11 11
-3 11 6 27 7 41 1 13 -5 23 -6 23 -2 0 4 7 -2 15 -13 14 -19 14 -19 15 1 1 11
4 14 7 8 2 -7 11 -13 19 -13 8 0 14 -4 14 -10 0 -5 9 -10 19 -10 11 0 23 -5
26 -11 5 -7 13 -5 24 5 11 10 21 12 31 6 8 -5 25 -7 37 -4 18 5 21 2 16 -15
-6 -23 6 -28 25 -9 9 9 12 9 12 0 0 -7 -4 -12 -10 -12 -5 0 0 -17 11 -37 17
-31 19 -40 8 -60 -7 -13 -18 -23 -25 -23 -6 0 -14 -7 -18 -15 -6 -17 -56 -21
-56 -4 0 8 -5 8 -15 -1 -12 -10 -15 -10 -15 4 0 20 -14 21 -34 0 -15 -14 -16
-14 -16 3 0 14 -2 15 -9 5 -6 -10 -10 -8 -14 8 -3 14 -11 21 -19 17 -8 -2 -22
1 -33 9 -10 8 -29 11 -42 8 -18 -5 -22 -3 -17 9 3 8 1 18 -5 22 -6 3 -11 -1
-11 -10 0 -9 -4 -13 -10 -10 -5 3 -10 16 -10 28 -1 21 -1 21 -15 4 -13 -18
-14 -18 -24 2 -8 13 -21 19 -41 19 -17 -1 -34 3 -38 7 -4 4 3 5 16 2 12 -3 22
-1 22 6 0 6 8 19 18 30 16 19 16 20 -5 8 -20 -10 -23 -9 -23 6 -1 12 -6 8 -15
-12 -13 -28 -13 -29 -14 -6 -1 20 -3 21 -16 11 -8 -7 -15 -9 -15 -5 0 4 -9 -3
-20 -16 -16 -20 -21 -22 -29 -9 -6 8 -14 11 -18 6 -4 -5 -2 -11 5 -13 6 -3 9
-9 6 -15 -4 -5 4 -5 16 2 17 9 25 9 34 -1 8 -9 8 -10 -1 -5 -7 4 -13 2 -13 -3
0 -6 5 -11 11 -11 7 0 30 -9 53 -19 23 -10 52 -24 66 -30 l25 -11 -25 6 c-30
6 -123 40 -165 59 -16 7 -70 30 -119 51 -49 21 -124 56 -165 79 -42 23 -89 45
-106 49 -16 4 -60 21 -97 37 -37 16 -111 41 -165 55 -54 14 -105 31 -113 38
-8 7 -34 24 -58 38 l-44 26 139 7 c463 26 486 25 607 -10z m-2054 -19 c0 -8
-6 -21 -13 -28 -8 -7 -13 -23 -12 -36 1 -12 -2 -22 -7 -22 -5 0 -7 -4 -4 -9 4
-5 0 -12 -6 -15 -10 -5 -10 -7 1 -12 10 -5 11 -8 1 -14 -7 -4 -13 -18 -14 -31
0 -14 -8 -25 -16 -25 -33 -3 -34 -5 -11 -18 20 -11 21 -14 6 -20 -9 -3 -21 -4
-26 0 -5 3 -9 -7 -9 -21 0 -18 -6 -29 -20 -32 -11 -3 -20 -9 -20 -13 0 -5 10
-6 22 -2 l21 5 -22 -22 c-12 -12 -26 -19 -30 -16 -5 2 -9 -1 -8 -8 2 -50 -4
-66 -20 -60 -11 4 -14 3 -9 -5 4 -7 2 -12 -3 -12 -6 0 -11 -8 -11 -19 0 -10
-6 -24 -14 -31 -8 -6 -12 -18 -9 -26 3 -8 -1 -14 -11 -14 -10 0 -19 -11 -23
-30 -3 -17 -14 -35 -25 -41 -10 -5 -16 -14 -13 -20 4 -5 1 -8 -6 -7 -7 2 -13
-3 -14 -10 0 -7 -7 -17 -15 -23 -11 -7 -7 -8 15 -4 29 5 29 5 5 -5 -20 -9 -22
-13 -10 -21 13 -9 12 -10 -2 -5 -22 7 -31 -7 -33 -52 -1 -20 -7 -38 -13 -40
-7 -2 -12 -15 -12 -28 0 -13 -5 -24 -11 -24 -5 0 -7 5 -3 12 4 6 3 8 -3 5 -6
-4 -10 -20 -9 -37 1 -20 -1 -26 -9 -20 -7 6 -15 2 -23 -10 -10 -16 -9 -18 8
-15 11 2 20 0 20 -6 0 -5 -5 -9 -11 -9 -6 0 -8 -7 -5 -15 4 -11 0 -15 -11 -13
-16 3 -25 -18 -25 -59 0 -12 -7 -24 -16 -28 -12 -4 -13 -3 -2 10 7 9 8 15 2
15 -6 0 -12 -6 -15 -12 -7 -20 3 -37 19 -31 8 3 14 0 14 -6 0 -6 -3 -10 -7 -9
-18 4 -63 -26 -59 -39 3 -7 -1 -13 -11 -13 -13 0 -13 -3 -3 -15 7 -8 9 -15 4
-15 -5 0 -3 -4 4 -9 11 -7 10 -9 -3 -14 -9 -4 -13 -3 -10 2 3 5 1 12 -5 16 -5
3 -10 0 -11 -7 0 -7 -2 -21 -4 -31 -3 -15 -1 -16 11 -6 15 13 17 9 8 -15 -3
-9 -12 -16 -19 -16 -8 0 -12 -9 -9 -22 2 -13 2 -17 -2 -10 -3 6 -12 12 -20 12
-17 0 -18 12 -1 30 10 12 9 12 -5 1 -24 -18 -23 -38 2 -53 23 -15 27 -30 5
-22 -10 4 -15 0 -15 -14 0 -11 -7 -25 -15 -32 -12 -10 -15 -10 -15 3 0 8 6 17
13 20 6 2 9 8 5 12 -9 10 -36 -17 -31 -32 2 -6 -5 -14 -17 -18 -27 -9 -16 -24
15 -20 14 1 25 -2 25 -6 0 -5 -6 -9 -13 -9 -9 0 -13 -13 -13 -40 1 -22 0 -40
-1 -40 -1 0 -8 -3 -16 -6 -12 -4 -14 0 -10 15 4 16 1 21 -13 20 -11 0 -14 -3
-7 -6 18 -7 -6 -43 -24 -36 -9 4 -11 0 -7 -11 4 -10 1 -17 -7 -18 -8 0 -18 -2
-24 -2 -5 -1 -19 -7 -30 -15 -19 -11 -18 -12 7 -7 16 4 30 1 34 -6 4 -7 4 -10
-1 -6 -10 10 -45 -10 -45 -25 0 -7 4 -6 10 3 6 9 10 10 10 3 0 -7 -8 -17 -17
-22 -10 -6 -13 -11 -8 -11 6 0 4 -4 -3 -9 -10 -6 -8 -10 8 -14 16 -4 20 -2 16
9 -3 8 -2 13 3 10 5 -3 9 -21 8 -40 0 -19 -5 -32 -10 -29 -5 3 -13 0 -17 -7
-6 -9 -11 -7 -19 9 -7 11 -18 21 -26 21 -12 0 -11 -7 5 -34 15 -28 16 -35 5
-40 -10 -3 -12 0 -8 11 6 15 5 15 -16 1 -12 -9 -32 -13 -43 -10 -15 3 -19 1
-14 -7 4 -6 0 -18 -9 -27 -9 -9 -14 -23 -11 -31 4 -8 1 -11 -5 -8 -6 4 -13 -3
-16 -14 -5 -21 -7 -21 -24 -5 -10 9 -16 21 -12 27 3 6 1 7 -5 3 -9 -5 -9 -13
-2 -26 8 -16 8 -18 -5 -14 -8 4 -15 11 -15 18 0 8 -2 8 -8 0 -4 -6 -14 -14
-22 -18 -8 -3 -5 -4 8 -2 12 2 22 3 22 1 0 -2 2 -10 6 -18 7 -20 -45 -54 -57
-36 -6 11 -9 10 -15 -4 -3 -9 -12 -17 -19 -17 -8 0 -16 -8 -18 -17 -4 -14 -5
-12 -6 5 0 12 3 22 9 22 5 0 7 7 3 16 -6 16 -7 16 -18 1 -7 -9 -16 -13 -21 -9
-4 4 -2 -2 6 -12 14 -18 14 -19 -7 -7 -19 10 -22 9 -17 -4 7 -18 -12 -21 -19
-2 -4 8 -8 9 -14 1 -12 -16 -46 -27 -36 -11 26 41 66 97 70 97 2 0 1 -6 -3
-12 -5 -9 -2 -9 9 1 18 15 23 26 7 16 -18 -11 -11 5 33 70 24 36 47 62 52 57
5 -4 5 -2 1 5 -4 7 4 29 17 50 13 21 33 58 44 83 11 25 45 87 76 139 103 173
146 271 212 485 78 254 177 470 234 513 20 15 71 61 114 102 73 71 130 116
222 177 22 15 64 49 93 76 56 50 72 58 72 34z m-920 -19 c0 -34 -34 -107 -63
-134 -30 -28 -211 -124 -420 -223 -49 -23 -105 -56 -125 -74 -20 -18 -53 -41
-72 -51 -76 -39 -439 -275 -458 -298 -8 -9 -21 -13 -30 -10 -11 3 -13 2 -5 -4
8 -6 3 -13 -17 -25 -36 -21 -54 -3 -23 22 20 16 20 16 -9 44 -25 23 -29 33
-24 59 3 18 7 40 9 50 1 10 7 21 12 25 6 4 10 21 11 39 1 31 33 79 35 51 0 -7
7 1 15 17 l15 30 -6 -30 c-4 -25 -3 -27 6 -12 6 10 7 31 3 50 -4 18 -9 26 -11
19 -3 -6 -9 -9 -14 -6 -6 3 -5 12 3 21 7 9 13 19 13 22 0 3 6 5 13 3 7 -2 11
3 10 10 -2 7 5 12 14 12 10 -1 16 1 14 5 -3 4 39 24 92 44 53 20 153 59 222
87 69 28 150 58 180 65 30 8 91 33 135 55 197 99 475 179 475 137z m3140 -11
c0 -2 -7 -6 -15 -10 -8 -3 -15 -1 -15 4 0 6 7 10 15 10 8 0 15 -2 15 -4z
m-1610 -33 c0 -9 3 -14 6 -10 12 12 90 -51 199 -160 183 -182 230 -243 261
-335 14 -43 58 -145 97 -226 38 -81 70 -153 70 -159 0 -7 4 -13 9 -13 4 0 8
-5 8 -11 0 -16 120 -310 136 -333 16 -23 19 -40 5 -31 -5 3 -12 1 -15 -4 -4
-5 2 -8 11 -7 20 3 78 -97 67 -116 -4 -6 -3 -8 3 -5 13 8 26 -20 16 -35 -3 -7
-1 -8 5 -4 7 4 20 -9 32 -31 11 -21 41 -69 65 -108 70 -108 67 -100 34 -101
-31 -2 -34 2 -20 25 11 18 -4 51 -22 50 -9 0 -9 -2 1 -6 6 -2 12 -9 12 -14 0
-6 -4 -8 -9 -4 -5 3 -12 1 -16 -5 -3 -5 1 -10 9 -10 9 0 16 -5 16 -11 0 -7
-10 -9 -25 -5 -14 4 -25 2 -25 -4 0 -5 -4 -10 -10 -10 -5 0 -10 7 -10 15 0 8
7 15 15 15 22 0 18 21 -5 27 -28 7 -25 21 4 18 19 -3 23 1 18 13 -5 15 -4 15
11 3 15 -12 17 -12 11 3 -8 21 -20 20 -34 -1 -10 -16 -10 -16 -5 3 3 12 -2 28
-15 42 -11 11 -17 27 -14 35 3 9 -6 23 -21 35 -15 12 -24 26 -21 31 4 6 -3 15
-14 21 -16 9 -18 15 -10 31 8 15 8 19 -2 17 -8 -2 -13 6 -12 20 0 12 -3 22 -8
22 -16 0 -58 55 -52 69 2 8 -4 20 -15 27 -17 12 -75 103 -93 147 -4 9 -11 17
-16 17 -8 0 -31 46 -66 130 -3 8 -4 5 -2 -7 2 -13 0 -23 -5 -23 -4 0 -6 -8 -3
-17 5 -15 4 -16 -5 -3 -6 8 -11 25 -11 38 0 13 -4 21 -10 17 -5 -3 -7 -12 -4
-19 3 -8 1 -16 -3 -19 -5 -3 -10 4 -10 15 -3 28 -10 33 -28 18 -13 -11 -14
-10 -10 3 4 9 -3 24 -17 37 -13 13 -17 20 -10 16 8 -5 12 1 12 18 0 29 -19 46
-21 19 -1 -17 -2 -17 -6 0 -2 9 -14 18 -26 18 -16 1 -18 2 -5 6 17 4 14 33 -4
33 -5 0 -6 -5 -2 -12 5 -7 3 -8 -5 -4 -7 5 -11 21 -8 41 5 38 -16 55 -32 27
-9 -15 -10 -15 -11 5 0 12 5 23 10 25 6 2 3 12 -8 23 -10 11 -17 25 -15 30 2
6 -9 18 -24 28 -28 18 -28 18 -3 12 21 -5 22 -4 7 5 -9 6 -14 16 -11 22 5 7 2
9 -8 6 -8 -4 -15 -1 -16 5 -3 32 -11 64 -21 87 -10 23 -11 22 -6 -10 5 -29 4
-32 -6 -17 -6 11 -9 30 -6 43 3 18 1 24 -9 20 -13 -5 -20 19 -15 47 1 5 -3 6
-9 2 -5 -3 -10 1 -10 9 0 10 -6 13 -17 10 -17 -5 -17 -5 0 9 19 16 23 38 5 35
-7 -2 -12 6 -13 17 0 13 -6 19 -17 19 -21 -2 -24 21 -5 30 10 5 10 7 0 12 -7
3 -13 12 -13 20 0 8 -9 14 -20 14 -14 0 -18 5 -13 18 4 9 11 20 17 24 19 13
-5 22 -25 10 -18 -11 -19 -10 -14 15 2 16 2 37 -2 48 l-6 20 -8 -20 c-6 -17
-8 -17 -8 -2 -1 9 -5 17 -10 17 -5 0 -7 9 -4 19 3 13 11 18 21 15 14 -4 13 -3
-1 6 -14 9 -22 9 -33 -1 -13 -10 -13 -8 -5 15 10 25 -1 37 -14 16 -4 -6 -11
-8 -16 -4 -5 3 -7 9 -4 14 3 5 1 11 -4 15 -6 3 -8 12 -5 20 7 18 24 10 24 -12z
m1644 15 c-5 -8 -1 -9 12 -4 14 5 16 4 8 -4 -6 -6 -19 -8 -28 -4 -14 5 -15 9
-4 15 18 12 20 11 12 -3z m-2254 -18 c0 -5 -2 -10 -4 -10 -3 0 -8 5 -11 10 -3
6 -1 10 4 10 6 0 11 -4 11 -10z m1504 -25 c77 -20 282 -98 361 -138 113 -57
150 -74 260 -122 61 -26 128 -56 151 -66 23 -10 50 -19 60 -19 10 -1 33 -8 49
-16 17 -8 21 -12 10 -9 -19 6 -19 5 -2 -12 14 -15 19 -15 26 -4 7 11 10 11 17
0 4 -7 3 -14 -4 -17 -7 -2 -12 -11 -12 -19 0 -11 6 -14 21 -10 15 4 22 -1 29
-17 5 -13 16 -26 24 -29 9 -4 16 -14 16 -23 0 -20 28 -43 53 -44 11 0 20 -10
23 -28 3 -16 17 -34 35 -44 34 -20 49 -53 42 -92 -5 -25 -3 -27 16 -21 17 5
21 2 21 -15 0 -18 -5 -20 -37 -18 -25 2 -37 -1 -36 -8 1 -7 -6 -10 -17 -7 -11
3 -17 9 -14 14 3 5 10 7 15 4 5 -4 9 -1 9 6 0 8 -13 10 -45 6 -26 -4 -45 -3
-45 3 0 5 7 7 15 4 9 -4 15 0 15 10 0 9 -8 16 -20 16 -11 0 -20 5 -20 10 0 6
-7 10 -16 10 -10 0 -14 6 -11 14 4 10 0 12 -14 9 -19 -5 -27 -23 -11 -23 15 0
56 -40 49 -47 -4 -3 -2 -12 4 -20 6 -7 8 -13 3 -13 -4 0 3 -11 16 -25 16 -17
30 -23 44 -19 16 4 18 3 6 -5 -12 -8 -11 -13 9 -30 13 -12 20 -21 14 -21 -5 0
-25 16 -44 36 -18 19 -55 49 -81 66 -27 16 -45 35 -41 41 3 5 1 7 -5 3 -11 -7
-80 30 -152 83 -24 17 -47 31 -53 31 -5 0 -53 32 -105 71 -79 61 -357 230
-497 303 -64 34 -183 153 -195 195 -11 41 -13 61 -4 61 3 0 34 -7 68 -15z
m766 -10 c0 -8 6 -15 14 -15 8 0 18 -5 22 -12 5 -7 3 -8 -5 -4 -7 5 -18 1 -25
-10 -7 -10 -18 -14 -25 -10 -9 6 -9 11 1 24 10 12 10 16 0 19 -6 3 -10 9 -6
14 8 14 24 11 24 -6z m-4612 -153 c2 -7 -1 -12 -8 -12 -6 0 -8 5 -4 11 4 7 1
10 -7 7 -8 -3 -13 -10 -12 -16 1 -5 -7 -18 -18 -28 -19 -17 -19 -17 -16 4 6
38 55 64 65 34z m86 -76 c-3 -9 -12 -16 -20 -16 -11 0 -10 4 4 18 20 22 25 21
16 -2z m1759 -5 c17 -6 17 -8 -2 -25 -18 -16 -321 -189 -456 -260 -30 -16 -55
-20 -98 -19 -32 2 -117 -8 -190 -22 -72 -13 -133 -22 -135 -20 -2 2 40 29 93
62 54 32 112 68 131 80 116 76 337 176 435 198 68 14 192 18 222 6z m-1733
-11 c0 -5 -5 -10 -11 -10 -5 0 -7 5 -4 10 3 6 8 10 11 10 2 0 4 -4 4 -10z
m4990 0 c0 -5 -4 -10 -10 -10 -5 0 -10 5 -10 10 0 6 5 10 10 10 6 0 10 -4 10
-10z m-4935 -60 c3 -6 -1 -7 -9 -4 -18 7 -21 14 -7 14 6 0 13 -4 16 -10z
m4630 -40 c3 -6 -1 -7 -9 -4 -18 7 -21 14 -7 14 6 0 13 -4 16 -10z m-3049 -42
c-8 -18 -33 -72 -56 -121 -37 -79 -79 -199 -125 -362 -44 -157 -67 -207 -175
-390 -26 -44 -70 -123 -97 -175 -47 -91 -91 -161 -189 -300 -44 -62 -74 -90
-62 -58 6 16 -19 21 -37 8 -16 -12 -60 -4 -57 10 2 7 -3 10 -10 8 -49 -19 -58
-19 -58 -2 0 11 -4 14 -12 8 -7 -5 -20 -9 -28 -8 -8 1 -26 3 -40 4 -14 1 -19
4 -12 7 6 2 12 8 12 13 0 4 -6 8 -12 7 -40 -1 -45 3 -40 35 4 29 3 31 -10 20
-13 -10 -18 -9 -29 5 -11 13 -11 15 -1 9 10 -6 13 -2 10 15 -1 12 -9 25 -17
27 -10 3 -12 0 -7 -14 5 -14 4 -16 -4 -8 -12 12 -3 47 10 39 5 -3 11 4 15 15
3 11 11 20 17 20 6 0 8 12 5 27 -7 35 2 60 14 41 6 -9 9 -9 9 -1 0 6 -4 14
-10 18 -5 3 -7 12 -4 20 4 8 10 13 14 10 4 -3 11 2 14 11 3 8 2 12 -4 9 -16
-10 -12 1 38 95 47 89 167 238 221 274 14 10 48 55 75 99 62 103 139 207 148
201 4 -2 10 1 14 7 4 8 3 9 -4 5 -18 -11 -14 5 11 46 86 142 89 146 161 186
220 122 312 172 319 172 4 0 1 -15 -7 -32z m3074 -2 c0 -3 -4 -8 -10 -11 -5
-3 -10 -1 -10 4 0 6 5 11 10 11 6 0 10 -2 10 -4z m145 -5 c3 -5 2 -12 -3 -15
-5 -3 -9 1 -9 9 0 17 3 19 12 6z m-1818 -33 c-3 -8 -6 -5 -6 6 -1 11 2 17 5
13 3 -3 4 -12 1 -19z m433 -45 c50 -21 226 -149 247 -179 10 -13 43 -57 73
-97 70 -90 210 -315 250 -399 47 -100 122 -220 179 -289 29 -34 66 -89 82
-121 16 -33 50 -86 75 -120 24 -33 42 -63 39 -67 -10 -9 -68 -8 -88 1 -13 7
-19 4 -26 -14 -5 -13 -6 -27 -3 -33 3 -5 -1 -4 -10 2 -8 7 -18 10 -21 6 -4 -3
-7 -1 -7 5 0 6 -6 9 -13 6 -8 -3 -25 0 -39 5 -23 9 -25 8 -20 -11 4 -15 1 -19
-9 -16 -8 3 -28 0 -46 -8 -17 -7 -42 -10 -55 -6 -22 5 -22 5 -5 -12 19 -20 22
-32 7 -41 -5 -3 -7 0 -4 8 3 9 -3 16 -15 20 -13 3 -18 1 -14 -8 8 -21 -31 -11
-42 11 -5 11 -22 40 -37 66 -17 28 -26 54 -22 65 5 14 4 15 -4 4 -8 -11 -12
-9 -23 10 -7 13 -11 24 -8 24 2 0 -9 17 -25 38 -25 32 -27 39 -15 55 13 16 13
16 -5 2 -18 -14 -19 -13 -13 3 4 10 3 16 -3 12 -12 -7 -33 32 -24 47 4 7 3 8
-4 4 -10 -6 -62 58 -62 76 0 4 -18 36 -41 72 -24 39 -38 70 -33 78 4 7 4 10 0
6 -14 -12 -67 109 -175 392 -82 215 -100 260 -129 316 -34 65 -62 132 -62 145
0 5 26 -3 58 -17 31 -14 73 -33 92 -41z m1277 51 c-3 -3 -12 -4 -19 -1 -8 3
-5 6 6 6 11 1 17 -2 13 -5z m-3533 -166 c-4 -13 -18 -36 -31 -52 -13 -15 -31
-42 -40 -60 -31 -62 -94 -135 -111 -129 -14 4 -14 3 -3 -5 12 -9 10 -17 -12
-51 -15 -22 -27 -43 -27 -46 0 -17 -66 -103 -150 -195 -53 -58 -111 -129 -129
-158 -35 -55 -183 -178 -200 -167 -6 3 -27 -4 -47 -16 -26 -14 -34 -16 -25 -6
9 12 10 21 1 36 -6 12 -14 20 -18 19 -4 -1 -15 2 -26 7 -12 5 -21 3 -27 -6 -6
-10 -9 -10 -9 -2 0 7 -11 15 -24 19 -14 3 -27 12 -30 20 -3 8 -16 14 -28 15
-22 0 -22 1 -3 9 11 5 14 9 6 9 -10 1 -11 4 -3 14 8 9 7 20 -2 39 -8 15 -12
29 -8 32 3 3 0 6 -7 6 -6 0 -15 10 -20 23 -10 25 6 62 44 105 51 57 123 150
178 228 67 97 144 173 225 224 75 47 99 55 257 80 71 11 131 23 134 25 2 3 35
5 73 5 67 0 69 -1 62 -22z m-1180 -24 c24 -9 19 -27 -10 -41 -30 -14 -54 -7
-54 14 0 11 4 13 13 6 6 -5 23 -7 37 -3 22 5 23 7 7 13 -11 4 -24 4 -29 0 -7
-3 -8 -1 -4 5 8 13 17 15 40 6z m2296 -34 c0 -5 -4 -10 -10 -10 -5 0 -12 -11
-16 -25 -4 -14 -9 -24 -12 -21 -7 8 19 66 29 66 5 0 9 -4 9 -10z m1604 -15
c217 -24 274 -52 466 -231 71 -66 114 -117 171 -204 109 -167 121 -189 125
-220 3 -24 0 -27 -19 -23 -19 4 -20 3 -4 -7 9 -6 17 -15 17 -21 0 -5 -8 -9
-17 -7 -13 2 -17 -3 -16 -20 2 -13 -1 -21 -7 -17 -6 3 -10 15 -10 26 0 11 -4
17 -10 14 -5 -3 -10 -1 -10 4 0 15 -37 14 -43 -1 -2 -7 3 -25 11 -40 14 -23
14 -30 3 -40 -11 -11 -13 -9 -8 10 3 12 1 22 -4 22 -5 0 -9 -5 -9 -11 0 -8 -5
-8 -15 1 -12 10 -15 10 -16 -1 0 -10 -2 -11 -6 -1 -2 6 -8 12 -12 12 -8 0 -4
-43 6 -70 4 -8 5 -21 4 -27 -1 -7 3 -13 9 -13 16 0 12 -42 -6 -55 -15 -11 -15
-12 0 -12 9 0 16 4 16 9 0 19 18 6 22 -17 5 -25 -5 -34 -17 -15 -14 22 -55
-24 -47 -53 1 -5 -2 -6 -7 -2 -6 3 -8 12 -4 20 3 8 0 15 -6 15 -6 0 -11 -9
-11 -19 0 -23 -28 -54 -41 -46 -5 4 -6 -1 -3 -9 3 -9 4 -16 2 -16 -10 0 -90
114 -118 168 -16 31 -47 80 -69 107 -74 92 -175 252 -210 334 -20 47 -47 92
-158 262 -13 19 -23 39 -23 43 0 5 -25 41 -55 81 -30 39 -55 74 -55 78 0 10
33 9 184 -8z m-3894 -5 c0 -5 -4 -10 -10 -10 -5 0 -10 5 -10 10 0 6 5 10 10
10 6 0 10 -4 10 -10z m2663 -21 c3 -12 3 -18 -1 -15 -3 4 -14 -8 -24 -26 -11
-18 -18 -28 -16 -23 6 19 32 85 34 85 1 0 4 -9 7 -21z m-2685 -9 c4 -12 2 -13
-9 -2 -18 17 -32 15 -25 -3 3 -8 1 -15 -4 -15 -12 0 -13 23 -3 34 11 11 36 2
41 -14z m2329 -32 c-3 -8 -6 -5 -6 6 -1 11 2 17 5 13 3 -3 4 -12 1 -19z
m-2137 -34 c0 -2 -16 -1 -36 1 -25 4 -33 2 -28 -7 4 -7 3 -8 -4 -4 -19 12 -35
-4 -21 -20 10 -12 9 -17 0 -27 -10 -9 -11 -8 -6 4 4 10 1 20 -6 25 -8 5 -2 15
22 34 31 26 35 27 56 13 13 -9 23 -17 23 -19z m4760 -9 c7 -8 8 -15 2 -15 -5
0 -15 7 -22 15 -7 8 -8 15 -2 15 5 0 15 -7 22 -15z m-2250 -9 c0 -3 -4 -8 -10
-11 -5 -3 -10 -1 -10 4 0 6 5 11 10 11 6 0 10 -2 10 -4z m-454 -58 c0 -10 -1
-18 -3 -18 -1 0 -7 8 -12 18 -7 13 -6 19 2 19 7 0 13 -9 13 -19z m-2156 -3
c11 -13 10 -14 -4 -9 -9 3 -16 10 -16 15 0 13 6 11 20 -6z m1689 -2 c0 -5 -4
-17 -8 -27 -7 -18 -8 -18 -14 -3 -3 9 -2 17 4 17 6 0 7 5 4 10 -3 6 -1 10 4
10 6 0 11 -3 10 -7z m435 -1 c3 -5 -1 -9 -9 -9 -8 0 -12 4 -9 9 3 4 7 8 9 8 2
0 6 -4 9 -8z m-2034 -42 c0 -5 -4 -10 -9 -10 -6 0 -13 5 -16 10 -3 6 1 10 9
10 9 0 16 -4 16 -10z m1981 -38 c-11 -21 -28 -45 -38 -52 -17 -14 -17 -14 -2
5 9 11 24 35 33 53 9 17 19 32 21 32 3 0 -3 -17 -14 -38z m9 -42 c0 -5 -5 -10
-11 -10 -5 0 -7 5 -4 10 3 6 8 10 11 10 2 0 4 -4 4 -10z m1187 -12 c-3 -8 -6
-5 -6 6 -1 11 2 17 5 13 3 -3 4 -12 1 -19z m-1246 -25 c13 -16 12 -17 -3 -4
-17 13 -22 21 -14 21 2 0 10 -8 17 -17z m1285 -20 c-7 -7 -26 7 -26 19 0 6 6
6 15 -2 9 -7 13 -15 11 -17z m1265 -57 c40 -23 139 -115 139 -130 0 -3 -7 -3
-16 1 -9 3 -20 0 -26 -8 -7 -10 -8 -8 -5 9 3 12 1 20 -4 16 -5 -3 -9 -13 -9
-24 0 -10 -7 -20 -15 -24 -8 -3 -15 -10 -15 -16 0 -6 6 -8 13 -5 6 4 4 0 -7
-9 -10 -8 -15 -19 -11 -25 3 -6 4 -11 1 -11 -3 0 -13 15 -22 33 -9 17 -47 77
-83 132 -37 55 -71 105 -74 112 -9 14 72 -16 134 -51z m-4557 31 c-3 -8 -12
-18 -20 -21 -11 -4 -10 0 3 18 20 26 27 28 17 3z m3294 5 c9 -6 10 -15 3 -33
-9 -21 -10 -22 -10 -3 -1 11 -6 25 -13 32 -14 14 0 16 20 4z m-1378 -26 c-7
-7 -13 -7 -20 0 -6 6 -3 10 10 10 13 0 16 -4 10 -10z m-1853 -82 c-3 -3 -12
-4 -19 -1 -8 3 -5 6 6 6 11 1 17 -2 13 -5z m1699 -66 c5 4 5 3 1 -3 -5 -5 -18
-10 -30 -10 -14 -1 -21 -6 -19 -15 2 -8 0 -12 -4 -8 -4 4 -14 2 -23 -4 -9 -7
-3 2 13 20 20 22 33 29 41 22 7 -5 16 -6 21 -2z m3045 -21 c-10 -9 -11 -8 -5
6 3 10 9 15 12 12 3 -3 0 -11 -7 -18z m-3131 -40 c0 -2 -10 -12 -22 -23 l-23
-19 19 23 c18 21 26 27 26 19z m-1540 -47 c0 -5 -5 -10 -11 -10 -5 0 -7 5 -4
10 3 6 8 10 11 10 2 0 4 -4 4 -10z m378 -99 c-12 -28 -26 -47 -33 -45 -6 3
-12 -2 -12 -10 0 -8 4 -13 9 -10 14 9 -24 -80 -40 -93 -11 -10 -19 -10 -29 -1
-11 8 -12 7 -7 -6 3 -9 10 -16 15 -16 5 0 9 -4 9 -10 0 -5 -7 -7 -15 -4 -8 4
-15 12 -15 19 0 7 -10 20 -22 29 -18 12 -19 14 -4 9 14 -5 17 -3 11 7 -5 9 -4
11 4 6 6 -4 8 -12 5 -18 -5 -7 -2 -8 5 -3 8 4 10 17 6 32 -3 15 -2 22 4 19 5
-4 12 -2 16 4 3 5 -1 10 -9 10 -8 0 -18 -5 -21 -10 -4 -6 -11 -8 -16 -4 -6 4
-6 11 2 20 6 7 15 11 20 8 5 -3 8 -1 7 5 -2 8 117 111 128 111 1 0 -7 -22 -18
-49z m-211 -23 c-3 -8 -6 -5 -6 6 -1 11 2 17 5 13 3 -3 4 -12 1 -19z m1252
-11 c-6 -14 -17 -28 -24 -31 -8 -2 -4 10 8 28 25 39 33 40 16 3z m-1184 -17
c-10 -11 -25 -20 -34 -19 -11 0 -9 4 7 11 12 6 22 15 22 20 0 4 5 8 12 8 6 0
3 -9 -7 -20z m3253 -65 c-3 -3 -9 2 -12 12 -6 14 -5 15 5 6 7 -7 10 -15 7 -18z
m-3143 -37 c-10 -13 -14 -16 -11 -8 3 8 9 24 13 35 4 11 8 14 11 7 2 -6 -4
-22 -13 -34z m3121 -40 c1 -12 -3 -15 -14 -10 -12 4 -13 7 -3 10 11 4 11 6 0
14 -12 8 -12 9 0 6 8 -2 15 -11 17 -20z m164 -58 c0 -5 -5 -10 -11 -10 -5 0
-7 5 -4 10 3 6 8 10 11 10 2 0 4 -4 4 -10z m-106 -13 c11 -10 11 -15 0 -25 -8
-7 -15 -8 -19 -2 -3 6 0 10 7 11 10 0 10 2 1 6 -7 2 -13 9 -13 14 0 13 9 11
24 -4z m133 -59 c-6 -4 -9 -8 -4 -8 17 0 23 -2 35 -12 6 -6 12 -18 11 -27 0
-10 -2 -12 -6 -3 -2 6 -8 10 -12 8 -16 -10 -34 14 -37 50 -2 36 -1 37 12 20
11 -16 11 -22 1 -28z m-114 20 c-4 -7 -6 -23 -4 -35 1 -15 -3 -23 -12 -23 -24
0 -25 22 -3 47 21 25 32 31 19 11z m72 -16 c-3 -3 -11 0 -18 7 -9 10 -8 11 6
5 10 -3 15 -9 12 -12z m-78 -84 c-3 -8 -6 -5 -6 6 -1 11 2 17 5 13 3 -3 4 -12
1 -19z"/>
<path d="M6473 5660 c2 -8 12 -16 23 -17 13 -2 15 -1 4 4 -8 3 -19 11 -23 17
-6 7 -7 6 -4 -4z"/>
<path d="M6560 5666 c0 -2 7 -9 15 -16 9 -7 15 -8 15 -2 0 5 -7 12 -15 16 -8
3 -15 4 -15 2z"/>
<path d="M6460 5631 c0 -5 7 -12 16 -15 14 -5 15 -4 4 9 -14 17 -20 19 -20 6z"/>
<path d="M6520 5636 c0 -2 7 -7 16 -10 8 -3 12 -2 9 4 -6 10 -25 14 -25 6z"/>
<path d="M6308 5613 c6 -2 18 -2 25 0 6 3 1 5 -13 5 -14 0 -19 -2 -12 -5z"/>
<path d="M6385 5610 c-3 -5 -1 -10 4 -10 6 0 11 5 11 10 0 6 -2 10 -4 10 -3 0
-8 -4 -11 -10z"/>
<path d="M1450 5510 c0 -5 5 -10 10 -10 6 0 10 5 10 10 0 6 -4 10 -10 10 -5 0
-10 -4 -10 -10z"/>
<path d="M1431 5494 c0 -11 3 -14 6 -6 3 7 2 16 -1 19 -3 4 -6 -2 -5 -13z"/>
<path d="M1371 5486 c-10 -12 -7 -15 18 -14 17 1 30 2 29 2 -2 1 -10 7 -19 14
-13 10 -19 9 -28 -2z"/>
<path d="M1510 5436 c0 -8 4 -17 8 -20 4 -2 8 4 8 15 0 10 -4 19 -8 19 -4 0
-8 -6 -8 -14z"/>
<path d="M6530 5489 c0 -5 5 -7 10 -4 6 3 10 8 10 11 0 2 -4 4 -10 4 -5 0 -10
-5 -10 -11z"/>
<path d="M6487 5463 c-4 -3 -7 -11 -7 -17 0 -6 5 -5 12 2 6 6 9 14 7 17 -3 3
-9 2 -12 -2z"/>
<path d="M6315 5400 c4 -6 11 -8 16 -5 14 9 11 15 -7 15 -8 0 -12 -5 -9 -10z"/>
<path d="M6072 5300 c0 -19 2 -27 5 -17 2 9 2 25 0 35 -3 9 -5 1 -5 -18z"/>
<path d="M6146 5313 c-6 -14 -5 -15 5 -6 7 7 10 15 7 18 -3 3 -9 -2 -12 -12z"/>
<path d="M6020 5288 c0 -36 12 -31 16 7 1 14 -2 25 -7 25 -5 0 -9 -14 -9 -32z"/>
<path d="M6035 5250 c-16 -7 -17 -9 -3 -9 9 -1 20 4 23 9 7 11 7 11 -20 0z"/>
<path d="M5820 5232 c-21 -17 -20 -17 27 -13 34 4 40 6 20 9 -15 2 -25 8 -22
13 9 14 -1 11 -25 -9z"/>
<path d="M2155 5241 c-3 -5 -1 -12 5 -16 5 -3 10 1 10 9 0 18 -6 21 -15 7z"/>
<path d="M2458 5223 c6 -2 18 -2 25 0 6 3 1 5 -13 5 -14 0 -19 -2 -12 -5z"/>
<path d="M6225 5200 c-13 -5 -14 -9 -5 -9 8 0 24 4 35 9 13 5 14 9 5 9 -8 0
-24 -4 -35 -9z"/>
<path d="M6308 5183 c6 -2 18 -2 25 0 6 3 1 5 -13 5 -14 0 -19 -2 -12 -5z"/>
<path d="M6460 5155 c-10 -12 -10 -15 4 -15 9 0 16 7 16 15 0 8 -2 15 -4 15
-2 0 -9 -7 -16 -15z"/>
<path d="M6508 5163 c-10 -2 -18 -9 -18 -14 0 -6 8 -5 20 1 11 6 20 13 20 15
0 3 -1 4 -2 4 -2 -1 -11 -3 -20 -6z"/>
<path d="M6552 5140 c0 -14 2 -19 5 -12 2 6 2 18 0 25 -3 6 -5 1 -5 -13z"/>
<path d="M6306 5124 c-4 -9 -4 -19 -1 -22 3 -3 5 0 5 6 0 7 7 12 15 12 8 0 15
5 15 10 0 16 -27 11 -34 -6z"/>
<path d="M6508 5133 c-10 -2 -18 -9 -18 -14 0 -14 16 -11 30 6 7 8 11 14 9 14
-2 -1 -12 -3 -21 -6z"/>
<path d="M6035 4981 c-10 -17 12 -21 25 -6 10 12 10 15 -3 15 -9 0 -18 -4 -22
-9z"/>
<path d="M5977 4929 c7 -7 15 -10 18 -7 3 3 -2 9 -12 12 -14 6 -15 5 -6 -5z"/>
<path d="M2030 5150 c0 -5 5 -10 10 -10 6 0 10 5 10 10 0 6 -4 10 -10 10 -5 0
-10 -4 -10 -10z"/>
<path d="M5600 5161 c0 -6 -10 -12 -22 -12 -17 -1 -18 -3 -6 -6 23 -6 55 12
39 21 -6 4 -11 2 -11 -3z"/>
<path d="M5480 5130 c-8 -5 -10 -10 -5 -10 6 0 17 5 25 10 8 5 11 10 5 10 -5
0 -17 -5 -25 -10z"/>
<path d="M1390 5120 c0 -5 5 -10 10 -10 6 0 10 5 10 10 0 6 -4 10 -10 10 -5 0
-10 -4 -10 -10z"/>
<path d="M1517 5109 c7 -7 15 -10 18 -7 3 3 -2 9 -12 12 -14 6 -15 5 -6 -5z"/>
<path d="M1457 5073 c-4 -3 -7 -13 -7 -22 1 -13 3 -13 11 2 11 19 8 33 -4 20z"/>
<path d="M1500 5073 c0 -6 5 -15 10 -18 6 -3 10 -11 10 -16 0 -6 -4 -7 -10 -4
-5 3 -10 1 -10 -4 0 -17 20 -13 27 5 3 9 20 22 37 30 l31 13 -32 1 c-17 0 -35
-5 -39 -11 -4 -8 -9 -7 -15 2 -6 10 -9 10 -9 2z"/>
<path d="M1800 5054 c0 -21 26 -34 65 -32 40 1 40 1 5 5 -19 3 -43 12 -52 20
-10 9 -18 12 -18 7z"/>
<path d="M1570 5040 c0 -5 5 -10 10 -10 6 0 10 5 10 10 0 6 -4 10 -10 10 -5 0
-10 -4 -10 -10z"/>
<path d="M1405 5020 c-3 -5 -1 -10 4 -10 6 0 11 5 11 10 0 6 -2 10 -4 10 -3 0
-8 -4 -11 -10z"/>
<path d="M1736 5009 c3 -5 39 -9 81 -9 42 0 74 2 72 5 -9 8 -159 13 -153 4z"/>
<path d="M1516 5002 c-2 -4 12 -9 32 -10 41 -3 41 2 0 12 -15 3 -29 2 -32 -2z"/>
<path d="M1688 5003 c6 -2 18 -2 25 0 6 3 1 5 -13 5 -14 0 -19 -2 -12 -5z"/>
<path d="M2545 4910 c3 -5 8 -10 11 -10 2 0 4 5 4 10 0 6 -5 10 -11 10 -5 0
-7 -4 -4 -10z"/>
<path d="M2735 4860 c-3 -5 -2 -10 4 -10 5 0 13 5 16 10 3 6 2 10 -4 10 -5 0
-13 -4 -16 -10z"/>
<path d="M2820 4635 c-11 -13 -15 -13 -21 -3 -7 10 -9 9 -9 -4 0 -10 4 -18 10
-18 5 0 7 -7 4 -15 -4 -10 0 -15 10 -15 9 0 22 -11 28 -25 6 -14 18 -24 27
-23 9 2 15 -3 14 -9 -3 -15 23 -17 32 -3 3 6 2 10 -4 10 -6 0 -7 8 -4 17 5 12
2 15 -10 10 -11 -4 -17 -1 -17 8 0 8 -4 15 -10 15 -5 0 -7 6 -4 14 3 7 -2 16
-11 20 -9 3 -13 2 -10 -4 3 -6 1 -10 -5 -10 -8 0 -10 9 -6 25 7 29 4 31 -14
10z"/>
<path d="M2910 4500 c0 -5 4 -10 9 -10 5 0 11 -7 13 -15 2 -9 8 -11 16 -6 18
11 4 41 -19 41 -10 0 -19 -4 -19 -10z"/>
<path d="M2990 4440 c0 -5 5 -10 11 -10 5 0 7 5 4 10 -3 6 -8 10 -11 10 -2 0
-4 -4 -4 -10z"/>
<path d="M3322 4150 c0 -14 2 -19 5 -12 2 6 2 18 0 25 -3 6 -5 1 -5 -13z"/>
<path d="M5272 5080 c-7 -11 -8 -20 -3 -20 9 0 24 30 18 36 -1 2 -8 -6 -15
-16z"/>
<path d="M5015 4680 c-3 -5 1 -10 9 -10 9 0 16 5 16 10 0 6 -4 10 -9 10 -6 0
-13 -4 -16 -10z"/>
<path d="M4990 4639 c0 -5 5 -7 10 -4 6 3 10 8 10 11 0 2 -4 4 -10 4 -5 0 -10
-5 -10 -11z"/>
<path d="M4939 4605 c-1 -3 -2 -9 -3 -14 -2 -12 -66 -86 -66 -75 0 5 -5 2 -10
-6 -5 -8 -10 -19 -10 -25 0 -5 5 -3 10 5 8 12 10 10 11 -10 1 -17 3 -19 6 -7
2 9 9 17 14 17 5 0 9 6 9 13 0 7 8 20 18 29 36 35 41 45 29 58 -9 10 -9 11 0
6 6 -3 14 -2 18 4 3 5 -1 10 -9 10 -9 0 -17 -2 -17 -5z"/>
<path d="M4830 4453 c0 -12 5 -25 10 -28 13 -8 13 15 0 35 -8 12 -10 11 -10
-7z"/>
<path d="M1700 4919 c0 -5 5 -7 10 -4 6 3 10 8 10 11 0 2 -4 4 -10 4 -5 0 -10
-5 -10 -11z"/>
<path d="M1596 4851 c-4 -5 3 -7 14 -4 23 6 26 13 6 13 -8 0 -17 -4 -20 -9z"/>
<path d="M1504 4683 c1 -14 6 -28 12 -30 7 -2 10 6 6 22 -6 35 -19 40 -18 8z"/>
<path d="M1386 4614 c-4 -14 -5 -28 -3 -31 3 -2 8 8 11 23 4 14 5 28 3 31 -3
2 -8 -8 -11 -23z"/>
<path d="M1472 4628 c6 -18 28 -21 28 -4 0 9 -7 16 -16 16 -9 0 -14 -5 -12
-12z"/>
<path d="M1515 4570 c-3 -5 -1 -10 4 -10 6 0 11 5 11 10 0 6 -2 10 -4 10 -3 0
-8 -4 -11 -10z"/>
<path d="M2112 4718 c-14 -14 -16 -28 -3 -28 9 0 24 30 18 36 -2 2 -9 -2 -15
-8z"/>
<path d="M1882 4700 c-9 -15 -7 -18 14 -16 26 1 33 20 11 29 -7 3 -18 -3 -25
-13z"/>
<path d="M1795 4700 c-3 -5 -1 -10 4 -10 6 0 11 5 11 10 0 6 -2 10 -4 10 -3 0
-8 -4 -11 -10z"/>
<path d="M2145 4700 c-3 -5 -1 -10 4 -10 6 0 11 5 11 10 0 6 -2 10 -4 10 -3 0
-8 -4 -11 -10z"/>
<path d="M1770 4660 c0 -5 5 -10 10 -10 6 0 10 5 10 10 0 6 -4 10 -10 10 -5 0
-10 -4 -10 -10z"/>
<path d="M1815 4660 c3 -5 8 -10 11 -10 2 0 4 5 4 10 0 6 -5 10 -11 10 -5 0
-7 -4 -4 -10z"/>
<path d="M2110 4645 c0 -7 -8 -19 -17 -25 -14 -9 -11 -10 17 -5 l35 6 -24 -21
-23 -20 35 0 c52 0 58 20 12 47 -11 6 -19 16 -17 22 1 6 -2 11 -8 11 -5 0 -10
-7 -10 -15z"/>
<path d="M1860 4629 c0 -5 5 -7 10 -4 6 3 10 8 10 11 0 2 -4 4 -10 4 -5 0 -10
-5 -10 -11z"/>
<path d="M1934 4618 c-3 -5 9 -8 25 -8 17 0 31 4 31 10 0 11 -49 9 -56 -2z"/>
<path d="M1880 4605 c0 -10 9 -15 28 -14 25 2 26 2 3 6 -19 4 -21 7 -10 14 11
7 11 9 -3 9 -10 0 -18 -7 -18 -15z"/>
<path d="M1997 4606 c-3 -8 1 -17 10 -20 23 -9 28 1 10 18 -13 13 -16 13 -20
2z"/>
<path d="M1835 4600 c3 -5 8 -10 11 -10 2 0 4 5 4 10 0 6 -5 10 -11 10 -5 0
-7 -4 -4 -10z"/>
<path d="M2237 4603 c-12 -12 -7 -23 11 -23 14 0 14 2 3 9 -11 7 -10 10 5 14
14 3 15 5 3 6 -9 0 -19 -2 -22 -6z"/>
<path d="M1788 4593 c6 -2 18 -2 25 0 6 3 1 5 -13 5 -14 0 -19 -2 -12 -5z"/>
<path d="M6165 4850 c3 -5 8 -10 11 -10 2 0 4 5 4 10 0 6 -5 10 -11 10 -5 0
-7 -4 -4 -10z"/>
<path d="M6487 4840 c3 -11 7 -20 8 -20 1 0 5 9 8 20 3 12 0 20 -8 20 -8 0
-11 -8 -8 -20z"/>
<path d="M6520 4841 c0 -5 -3 -18 -6 -28 -5 -16 -4 -16 10 1 18 23 20 36 6 36
-5 0 -10 -4 -10 -9z"/>
<path d="M6470 4752 c0 -4 11 -12 24 -18 19 -9 23 -9 19 1 -5 14 -43 28 -43
17z"/>
<path d="M6455 4720 c4 -6 11 -8 16 -5 14 9 11 15 -7 15 -8 0 -12 -5 -9 -10z"/>
<path d="M6290 4703 c0 -9 -6 -13 -15 -9 -28 10 -16 -20 13 -32 l27 -12 -27 5
c-16 3 -28 0 -31 -8 -4 -9 -8 -9 -15 2 -8 11 -10 8 -9 -12 2 -30 14 -36 23
-12 7 17 34 21 34 5 0 -5 -4 -10 -10 -10 -5 0 -10 -4 -10 -8 0 -5 10 -8 23 -7
12 1 29 -2 39 -6 11 -6 18 -4 22 7 3 8 10 12 16 9 5 -3 7 0 4 9 -3 9 -14 13
-30 10 -13 -2 -24 0 -24 6 0 6 5 8 11 4 8 -4 9 0 4 15 -4 12 -2 21 4 21 15 0
14 30 -1 31 -7 0 -21 2 -30 4 -11 2 -18 -3 -18 -12z"/>
<path d="M6171 4684 c-7 -17 -17 -24 -26 -20 -8 3 -15 1 -15 -4 0 -6 4 -10 9
-10 5 0 12 -8 14 -17 4 -14 5 -12 6 5 1 14 7 22 19 22 9 0 26 8 37 16 20 16
20 16 -2 9 -18 -5 -22 -3 -17 9 10 27 -12 18 -25 -10z"/>
<path d="M5810 4650 c0 -5 5 -10 11 -10 5 0 7 5 4 10 -3 6 -8 10 -11 10 -2 0
-4 -4 -4 -10z"/>
<path d="M6456 4645 c-3 -9 0 -15 9 -15 9 0 12 6 9 15 -4 8 -7 15 -9 15 -2 0
-5 -7 -9 -15z"/>
<path d="M5850 4631 c0 -15 7 -19 30 -19 32 1 37 7 18 26 -19 19 -48 15 -48
-7z"/>
<path d="M6187 4633 c-12 -12 -7 -22 8 -17 8 4 15 10 15 15 0 11 -14 12 -23 2z"/>
<path d="M6532 4635 c4 -5 2 -15 -5 -23 -10 -13 -9 -14 9 -4 12 6 24 8 28 5 3
-3 6 -3 6 0 0 3 -10 12 -22 18 -13 6 -20 8 -16 4z"/>
<path d="M6135 4590 c4 -6 11 -8 16 -5 14 9 11 15 -7 15 -8 0 -12 -5 -9 -10z"/>
<path d="M6210 4586 c0 -8 -6 -17 -12 -19 -7 -3 -2 -6 12 -6 19 -1 26 4 26 19
0 11 -6 20 -13 20 -7 0 -13 -6 -13 -14z"/>
<path d="M5916 4505 c4 -8 8 -15 10 -15 2 0 4 7 4 15 0 8 -4 15 -10 15 -5 0
-7 -7 -4 -15z"/>
<path d="M1825 4520 c3 -5 8 -10 11 -10 2 0 4 5 4 10 0 6 -5 10 -11 10 -5 0
-7 -4 -4 -10z"/>
<path d="M1850 4507 c-14 -23 -6 -34 14 -18 10 8 16 9 21 1 3 -5 13 -10 21
-10 11 0 12 4 5 19 -6 10 -7 21 -4 25 4 3 -5 5 -19 4 -14 -1 -31 -11 -38 -21z"/>
<path d="M1386 4401 c-4 -6 0 -14 8 -17 9 -3 13 -10 10 -15 -7 -11 17 -79 28
-79 11 0 -2 53 -15 61 -5 4 -7 11 -4 16 4 6 0 18 -7 28 -9 13 -15 15 -20 6z"/>
<path d="M1449 4321 c7 -5 10 -14 7 -20 -4 -6 -1 -11 7 -11 10 0 13 7 10 20
-3 11 -13 20 -22 20 -13 0 -13 -2 -2 -9z"/>
<path d="M1764 4277 c3 -10 6 -23 6 -28 0 -5 4 -9 9 -9 13 0 7 28 -9 43 -10
10 -12 9 -6 -6z"/>
<path d="M1842 4270 c0 -14 2 -19 5 -12 2 6 2 18 0 25 -3 6 -5 1 -5 -13z"/>
<path d="M1810 4255 c0 -8 5 -15 10 -15 6 0 10 7 10 15 0 8 -4 15 -10 15 -5 0
-10 -7 -10 -15z"/>
<path d="M1458 4203 c7 -3 16 -2 19 1 4 3 -2 6 -13 5 -11 0 -14 -3 -6 -6z"/>
<path d="M1498 4133 c7 -3 16 -2 19 1 4 3 -2 6 -13 5 -11 0 -14 -3 -6 -6z"/>
<path d="M1565 4110 c3 -5 12 -7 20 -3 21 7 19 13 -6 13 -11 0 -18 -4 -14 -10z"/>
<path d="M1415 4090 c-18 -8 -17 -9 8 -9 16 -1 26 3 22 9 -3 6 -7 10 -8 9 -1
0 -11 -4 -22 -9z"/>
<path d="M1610 4090 c0 -5 7 -7 15 -4 8 4 15 8 15 10 0 2 -7 4 -15 4 -8 0 -15
-4 -15 -10z"/>
<path d="M6000 4430 c0 -5 5 -10 10 -10 6 0 10 5 10 10 0 6 -4 10 -10 10 -5 0
-10 -4 -10 -10z"/>
<path d="M6048 4423 c7 -3 16 -2 19 1 4 3 -2 6 -13 5 -11 0 -14 -3 -6 -6z"/>
<path d="M6033 4391 c1 -12 5 -21 9 -21 4 0 8 -10 9 -22 l0 -23 11 23 c6 12
20 22 32 23 20 1 19 1 -2 7 -13 4 -22 12 -20 17 2 6 -7 11 -19 13 -17 3 -21
-2 -20 -17z"/>
<path d="M5965 4360 c3 -5 8 -10 11 -10 2 0 4 5 4 10 0 6 -5 10 -11 10 -5 0
-7 -4 -4 -10z"/>
<path d="M5940 4339 c0 -5 5 -7 10 -4 6 3 10 8 10 11 0 2 -4 4 -10 4 -5 0 -10
-5 -10 -11z"/>
<path d="M6325 4280 c-3 -5 -2 -10 4 -10 5 0 13 5 16 10 3 6 2 10 -4 10 -5 0
-13 -4 -16 -10z"/>
<path d="M6533 4220 c3 -11 0 -20 -6 -20 -6 0 -7 -3 -4 -6 11 -11 36 16 30 32
-8 22 -26 17 -20 -6z"/>
<path d="M2125 4040 c4 -6 11 -8 16 -5 14 9 11 15 -7 15 -8 0 -12 -5 -9 -10z"/>
<path d="M1985 4030 c-3 -5 -1 -10 4 -10 6 0 11 5 11 10 0 6 -2 10 -4 10 -3 0
-8 -4 -11 -10z"/>
<path d="M1940 3991 c0 -5 7 -12 16 -15 24 -9 27 -7 10 9 -17 17 -26 19 -26 6z"/>
<path d="M1415 3920 c3 -5 8 -10 11 -10 2 0 4 5 4 10 0 6 -5 10 -11 10 -5 0
-7 -4 -4 -10z"/>
<path d="M1965 3900 c3 -5 11 -10 16 -10 6 0 7 5 4 10 -3 6 -11 10 -16 10 -6
0 -7 -4 -4 -10z"/>
<path d="M1776 3887 c3 -8 -11 -22 -34 -35 -34 -19 -53 -52 -30 -52 5 0 8 -6
7 -12 -2 -20 12 -58 22 -58 12 0 12 0 -6 50 -18 51 -19 62 -2 35 7 -11 21 -20
32 -20 12 0 20 -6 19 -16 -1 -11 5 -15 17 -12 11 3 15 11 12 20 -5 12 -1 14
14 9 11 -4 33 -2 48 4 23 9 26 13 15 23 -10 9 -13 9 -17 0 -3 -7 -13 -13 -24
-13 -12 0 -16 5 -13 15 4 8 1 15 -4 15 -6 0 -14 9 -17 20 -3 11 -15 25 -25 30
-15 8 -18 7 -14 -3z m14 -58 c0 -6 -6 -9 -14 -6 -8 3 -17 1 -20 -6 -2 -7 -5
-4 -5 6 -1 11 6 17 19 17 11 0 20 -5 20 -11z"/>
<path d="M1825 3880 c3 -5 8 -10 11 -10 2 0 4 5 4 10 0 6 -5 10 -11 10 -5 0
-7 -4 -4 -10z"/>
<path d="M1932 3869 c-7 -11 -11 -23 -9 -25 7 -7 29 24 25 36 -2 6 -9 1 -16
-11z"/>
<path d="M2015 3880 c3 -5 10 -10 16 -10 5 0 9 5 9 10 0 6 -7 10 -16 10 -8 0
-12 -4 -9 -10z"/>
<path d="M1980 3871 c0 -5 6 -12 13 -14 6 -3 -1 -6 -16 -6 -36 -1 -31 -22 6
-32 22 -6 27 -4 27 11 0 25 -10 50 -21 50 -5 0 -9 -4 -9 -9z"/>
<path d="M1547 3852 c-21 -23 -22 -39 -2 -22 13 11 14 10 9 -6 -4 -11 -3 -16
2 -11 7 7 15 57 9 57 -1 0 -9 -8 -18 -18z"/>
<path d="M1614 3846 c-7 -14 -8 -30 -3 -38 7 -10 9 -8 9 7 0 15 3 16 12 7 21
-21 27 -13 12 18 -9 17 -16 30 -17 30 -1 0 -7 -11 -13 -24z"/>
<path d="M1664 3835 c2 -21 9 -41 15 -43 15 -5 13 28 -4 58 -14 24 -14 24 -11
-15z"/>
<path d="M2060 3830 c0 -5 5 -10 11 -10 5 0 7 5 4 10 -3 6 -8 10 -11 10 -2 0
-4 -4 -4 -10z"/>
<path d="M1955 3800 c4 -6 11 -8 16 -5 14 9 11 15 -7 15 -8 0 -12 -5 -9 -10z"/>
<path d="M1630 3794 c0 -3 7 -12 15 -20 16 -17 18 -14 9 10 -6 15 -24 23 -24
10z"/>
<path d="M2106 3791 c-4 -7 -5 -15 -2 -18 9 -9 19 4 14 18 -4 11 -6 11 -12 0z"/>
<path d="M1757 3783 c-4 -3 -7 -11 -7 -17 0 -6 5 -5 12 2 6 6 9 14 7 17 -3 3
-9 2 -12 -2z"/>
<path d="M1890 3780 c0 -5 5 -10 11 -10 5 0 7 5 4 10 -3 6 -8 10 -11 10 -2 0
-4 -4 -4 -10z"/>
<path d="M1845 3769 c-9 -13 -6 -15 25 -23 14 -3 19 -3 13 0 -7 3 -13 12 -13
20 0 16 -16 19 -25 3z"/>
<path d="M1810 3750 c-9 -6 -10 -10 -3 -10 6 0 15 5 18 10 8 12 4 12 -15 0z"/>
<path d="M2231 3698 c-1 -30 2 -33 44 -41 17 -4 24 -4 16 0 -10 4 -8 9 10 19
24 13 24 13 2 14 -12 0 -25 5 -28 11 -4 6 -13 8 -20 5 -8 -3 -16 0 -19 7 -2 7
-5 0 -5 -15z"/>
<path d="M6600 3879 c0 -5 5 -7 10 -4 6 3 10 8 10 11 0 2 -4 4 -10 4 -5 0 -10
-5 -10 -11z"/>
<path d="M6415 3870 c-3 -5 -1 -10 4 -10 6 0 11 5 11 10 0 6 -2 10 -4 10 -3 0
-8 -4 -11 -10z"/>
<path d="M6480 3866 c0 -2 7 -7 16 -10 8 -3 12 -2 9 4 -6 10 -25 14 -25 6z"/>
<path d="M6555 3860 c3 -5 8 -10 11 -10 2 0 4 5 4 10 0 6 -5 10 -11 10 -5 0
-7 -4 -4 -10z"/>
<path d="M6735 3840 c-3 -5 -1 -10 4 -10 6 0 11 5 11 10 0 6 -2 10 -4 10 -3 0
-8 -4 -11 -10z"/>
<path d="M6430 3810 c-9 -6 -10 -10 -3 -10 6 0 15 5 18 10 8 12 4 12 -15 0z"/>
<path d="M5711 3751 c-11 -7 -11 -9 0 -13 8 -3 -14 -11 -48 -18 -35 -7 -63
-17 -63 -21 0 -5 -7 -9 -15 -9 -8 0 -15 -4 -15 -10 0 -5 7 -7 15 -4 8 4 15 1
15 -6 0 -6 4 -9 8 -6 5 3 32 2 60 -3 32 -5 55 -4 61 2 7 7 15 6 24 -1 8 -7 17
-9 20 -5 4 3 7 0 7 -8 1 -10 5 -8 15 5 17 22 20 50 5 41 -5 -3 -8 0 -5 7 3 8
-8 19 -27 27 -18 8 -35 18 -38 22 -3 4 -12 4 -19 0z m57 -66 c-3 -3 -9 2 -12
12 -6 14 -5 15 5 6 7 -7 10 -15 7 -18z"/>
<path d="M5850 3719 c0 -5 5 -7 10 -4 6 3 10 8 10 11 0 2 -4 4 -10 4 -5 0 -10
-5 -10 -11z"/>
<path d="M5845 3650 c-3 -5 -1 -10 4 -10 6 0 11 5 11 10 0 6 -2 10 -4 10 -3 0
-8 -4 -11 -10z"/>
<path d="M5858 3613 c7 -3 16 -2 19 1 4 3 -2 6 -13 5 -11 0 -14 -3 -6 -6z"/>
<path d="M1960 3700 c0 -5 5 -10 10 -10 6 0 10 5 10 10 0 6 -4 10 -10 10 -5 0
-10 -4 -10 -10z"/>
<path d="M2523 3593 c9 -2 23 -2 30 0 6 3 -1 5 -18 5 -16 0 -22 -2 -12 -5z"/>
<path d="M3148 3593 c7 -3 16 -2 19 1 4 3 -2 6 -13 5 -11 0 -14 -3 -6 -6z"/>
<path d="M2637 3576 c-4 -10 -5 -21 -2 -24 9 -9 17 6 13 25 -3 17 -4 17 -11
-1z"/>
<path d="M3460 3579 c0 -5 5 -7 10 -4 6 3 10 8 10 11 0 2 -4 4 -10 4 -5 0 -10
-5 -10 -11z"/>
<path d="M3230 3572 c0 -5 7 -15 15 -22 8 -7 15 -8 15 -2 0 5 -7 15 -15 22 -8
7 -15 8 -15 2z"/>
<path d="M3420 3555 c0 -5 5 -17 10 -25 5 -8 10 -10 10 -5 0 6 -5 17 -10 25
-5 8 -10 11 -10 5z"/>
<path d="M2523 3533 c9 -2 25 -2 35 0 9 3 1 5 -18 5 -19 0 -27 -2 -17 -5z"/>
<path d="M3408 3503 c7 -3 16 -2 19 1 4 3 -2 6 -13 5 -11 0 -14 -3 -6 -6z"/>
<path d="M4575 3490 c3 -5 8 -10 11 -10 2 0 4 5 4 10 0 6 -5 10 -11 10 -5 0
-7 -4 -4 -10z"/>
<path d="M2772 3470 c0 -14 2 -19 5 -12 2 6 2 18 0 25 -3 6 -5 1 -5 -13z"/>
<path d="M2730 3466 c0 -9 5 -16 10 -16 6 0 10 4 10 9 0 6 -4 13 -10 16 -5 3
-10 -1 -10 -9z"/>
<path d="M4560 3414 c0 -8 6 -11 15 -8 8 4 15 9 15 13 0 4 -7 8 -15 8 -8 0
-15 -6 -15 -13z"/>
<path d="M4603 3406 c-4 -7 -17 -16 -28 -19 -15 -4 -14 -5 5 -4 14 1 31 -2 38
-6 8 -6 12 -2 12 12 0 25 -16 36 -27 17z"/>
<path d="M5615 3330 c3 -5 8 -10 11 -10 2 0 4 5 4 10 0 6 -5 10 -11 10 -5 0
-7 -4 -4 -10z"/>
<path d="M1780 2344 c0 -8 5 -12 10 -9 6 4 8 11 5 16 -9 14 -15 11 -15 -7z"/>
<path d="M2040 3319 c0 -5 5 -7 10 -4 6 3 10 8 10 11 0 2 -4 4 -10 4 -5 0 -10
-5 -10 -11z"/>
<path d="M1594 3128 l-19 -23 23 19 c21 18 27 26 19 26 -2 0 -12 -10 -23 -22z"/>
<path d="M1480 2996 c0 -9 5 -16 10 -16 6 0 10 4 10 9 0 6 -4 13 -10 16 -5 3
-10 -1 -10 -9z"/>
<path d="M1450 2980 c0 -5 5 -10 11 -10 5 0 7 5 4 10 -3 6 -8 10 -11 10 -2 0
-4 -4 -4 -10z"/>
<path d="M1520 2954 c8 -10 15 -20 16 -22 1 -2 4 1 7 5 3 5 -4 15 -16 23 -21
12 -21 12 -7 -6z"/>
<path d="M1635 2890 c3 -5 11 -10 16 -10 6 0 7 5 4 10 -3 6 -11 10 -16 10 -6
0 -7 -4 -4 -10z"/>
<path d="M6172 2213 c-10 -4 -10 -8 -1 -19 6 -8 16 -14 21 -14 6 0 5 7 -2 15
-10 12 -10 15 3 15 8 0 17 -6 20 -12 2 -7 8 -9 13 -5 17 16 -26 32 -54 20z"/>
<path d="M6285 2191 c-6 -11 9 -23 19 -14 9 9 7 23 -3 23 -6 0 -12 -4 -16 -9z"/>
<path d="M6229 2161 c7 -5 10 -14 7 -20 -4 -6 -1 -11 8 -11 8 0 18 5 22 11 5
8 9 8 14 -1 4 -7 13 -9 20 -5 8 5 4 11 -12 19 -27 14 -81 20 -59 7z"/>
<path d="M5860 3169 c0 -6 8 -8 19 -4 15 4 21 0 24 -17 4 -20 4 -20 6 5 1 23
-3 27 -24 27 -14 0 -25 -5 -25 -11z"/>
<path d="M5872 3110 c0 -14 2 -19 5 -12 2 6 2 18 0 25 -3 6 -5 1 -5 -13z"/>
<path d="M6346 2941 c-4 -5 -2 -12 3 -15 5 -4 12 -2 15 3 4 5 2 12 -3 15 -5 4
-12 2 -15 -3z"/>
<path d="M3006 1871 c-4 -7 -5 -15 -2 -18 9 -9 19 4 14 18 -4 11 -6 11 -12 0z"/>
<path d="M2890 1810 c0 -5 5 -10 11 -10 5 0 7 5 4 10 -3 6 -8 10 -11 10 -2 0
-4 -4 -4 -10z"/>
<path d="M2853 1793 c12 -14 25 -19 35 -15 15 5 14 7 -3 10 -11 2 -27 9 -35
15 -8 7 -7 2 3 -10z"/>
<path d="M2810 1779 c0 -5 5 -7 10 -4 6 3 10 8 10 11 0 2 -4 4 -10 4 -5 0 -10
-5 -10 -11z"/>
<path d="M2882 1631 c-11 -7 -11 -9 2 -14 10 -4 16 -1 16 8 0 17 -1 17 -18 6z"/>
<path d="M2708 1556 c-5 -25 17 -64 29 -51 5 4 2 10 -4 12 -7 3 -13 9 -13 14
0 6 5 7 10 4 6 -3 10 -2 10 4 0 5 -6 12 -12 14 -7 3 1 6 17 7 26 1 27 3 10 10
-33 14 -42 11 -47 -14z"/>
<path d="M1655 2800 c-4 -6 -11 -7 -17 -4 -7 4 -8 2 -4 -5 6 -9 11 -9 22 0 14
11 18 19 10 19 -3 0 -8 -5 -11 -10z"/>
<path d="M1610 2456 c7 -7 13 -7 20 0 6 6 3 10 -10 10 -13 0 -16 -4 -10 -10z"/>
<path d="M1570 2420 c-8 -5 -12 -12 -9 -15 4 -3 12 1 19 10 14 17 11 19 -10 5z"/>
<path d="M4400 3029 c0 -5 5 -7 10 -4 6 3 10 8 10 11 0 2 -4 4 -10 4 -5 0 -10
-5 -10 -11z"/>
<path d="M4790 2280 c0 -5 5 -10 10 -10 6 0 10 5 10 10 0 6 -4 10 -10 10 -5 0
-10 -4 -10 -10z"/>
<path d="M5225 1646 c10 -14 19 -26 22 -26 7 0 -17 39 -28 46 -6 3 -3 -5 6
-20z"/>
<path d="M5307 1517 c-3 -8 1 -14 9 -14 16 0 19 13 5 21 -5 3 -11 0 -14 -7z"/>
<path d="M6188 2410 c22 -39 35 -39 16 0 -9 17 -19 30 -24 30 -5 0 -1 -13 8
-30z"/>
<path d="M2310 1400 c0 -5 5 -10 11 -10 5 0 7 5 4 10 -3 6 -8 10 -11 10 -2 0
-4 -4 -4 -10z"/>
<path d="M5555 1768 c-11 -31 10 -102 27 -92 15 9 29 -19 15 -29 -11 -7 40 1
55 9 8 5 -19 61 -33 70 -6 3 -14 17 -19 30 -10 25 -38 33 -45 12z"/>
<path d="M5736 1485 c4 -8 13 -15 21 -15 13 0 13 3 3 15 -7 8 -16 15 -21 15
-5 0 -6 -7 -3 -15z"/>
<path d="M5415 1480 c3 -5 8 -10 11 -10 2 0 4 5 4 10 0 6 -5 10 -11 10 -5 0
-7 -4 -4 -10z"/>
<path d="M5440 1401 c0 -5 5 -13 10 -16 6 -3 10 -2 10 4 0 5 -4 13 -10 16 -5
3 -10 2 -10 -4z"/>
<path d="M1778 1803 c7 -3 16 -2 19 1 4 3 -2 6 -13 5 -11 0 -14 -3 -6 -6z"/>
<path d="M1815 1770 c3 -5 8 -10 11 -10 2 0 4 5 4 10 0 6 -5 10 -11 10 -5 0
-7 -4 -4 -10z"/>
<path d="M2006 1753 c-6 -14 -5 -15 5 -6 7 7 10 15 7 18 -3 3 -9 -2 -12 -12z"/>
<path d="M1939 1703 c-13 -16 -12 -17 4 -4 16 13 21 21 13 21 -2 0 -10 -8 -17
-17z"/>
<path d="M6096 1807 c3 -10 9 -15 12 -12 3 3 0 11 -7 18 -10 9 -11 8 -5 -6z"/>
<path d="M6215 1969 c-4 -6 -5 -12 -2 -15 2 -3 7 2 10 11 7 17 1 20 -8 4z"/>
<path d="M2010 1666 c0 -2 7 -7 16 -10 8 -3 12 -2 9 4 -6 10 -25 14 -25 6z"/>
<path d="M3190 1721 c0 -25 6 -27 13 -6 4 8 2 17 -3 20 -6 4 -10 -3 -10 -14z"/>
<path d="M3082 1585 c-14 -30 -12 -31 10 -5 10 10 14 22 9 24 -4 3 -13 -6 -19
-19z"/>
</g>
</svg>
